<?xml version="1.0" standalone="no"?>
<!DOCTYPE svg PUBLIC "-//W3C//DTD SVG 20010904//EN"
 "http://www.w3.org/TR/2001/REC-SVG-20010904/DTD/svg10.dtd">
<svg version="1.0" xmlns="http://www.w3.org/2000/svg"
 width="374.000000pt" height="332.000000pt" viewBox="0 0 374.000000 332.000000"
 preserveAspectRatio="xMidYMid meet">

<g transform="translate(0.000000,332.000000) scale(0.100000,-0.100000)"
fill="#000000" stroke="none">
<path d="M1730 3170 c-44 -7 -44 -7 18 -8 40 -1 61 2 57 8 -3 6 -12 9 -18 8
-7 0 -32 -4 -57 -8z"/>
<path d="M1820 3170 c0 -5 5 -10 10 -10 6 0 10 5 10 10 0 6 -4 10 -10 10 -5 0
-10 -4 -10 -10z"/>
<path d="M1875 3170 c-3 -5 1 -10 10 -10 9 0 13 5 10 10 -3 6 -8 10 -10 10 -2
0 -7 -4 -10 -10z"/>
<path d="M1920 3166 c0 -2 14 -6 30 -8 17 -3 30 -1 30 4 0 4 -13 8 -30 8 -16
0 -30 -2 -30 -4z"/>
<path d="M1603 3153 c9 -2 23 -2 30 0 6 3 -1 5 -18 5 -16 0 -22 -2 -12 -5z"/>
<path d="M2018 3153 c6 -2 18 -2 25 0 6 3 1 5 -13 5 -14 0 -19 -2 -12 -5z"/>
<path d="M1400 3120 c-12 -8 -12 -10 5 -10 11 0 27 5 35 10 12 8 12 10 -5 10
-11 0 -27 -5 -35 -10z"/>
<path d="M2200 3120 c8 -5 24 -9 35 -9 l20 0 -20 9 c-11 5 -27 9 -35 9 -13 1
-13 0 0 -9z"/>
<path d="M2310 3089 c30 -11 59 -18 65 -16 10 4 -95 38 -112 36 -4 0 17 -9 47
-20z"/>
<path d="M1220 3060 c-13 -8 -13 -10 2 -10 9 0 20 5 23 10 8 13 -5 13 -25 0z"/>
<path d="M2396 3061 c5 -5 20 -12 34 -15 l25 -7 -25 15 c-28 17 -50 21 -34 7z"/>
<path d="M1133 3028 c-13 -6 -23 -15 -23 -20 0 -5 14 -2 30 7 45 23 38 35 -7
13z"/>
<path d="M2480 3025 c14 -8 30 -14 35 -14 6 0 -1 6 -15 14 -14 8 -29 14 -35
14 -5 0 1 -6 15 -14z"/>
<path d="M1058 2993 c-10 -2 -18 -9 -18 -14 0 -6 8 -5 20 1 11 6 20 13 20 15
0 3 -1 4 -2 4 -2 -1 -11 -3 -20 -6z"/>
<path d="M2555 2990 c3 -5 11 -10 16 -10 6 0 7 5 4 10 -3 6 -11 10 -16 10 -6
0 -7 -4 -4 -10z"/>
<path d="M2352 2962 c-15 -10 -6 -40 20 -65 12 -12 17 -26 13 -38 -8 -25 1
-25 15 0 8 16 4 25 -21 52 -33 35 -30 45 16 52 l30 4 -30 1 c-16 1 -36 -2 -43
-6z"/>
<path d="M959 2932 c-81 -48 -149 -96 -149 -106 0 -4 9 -2 19 5 69 50 121 85
156 106 22 12 36 23 30 23 -5 0 -31 -13 -56 -28z"/>
<path d="M2445 2950 c27 -12 43 -12 25 0 -8 5 -22 9 -30 9 -10 0 -8 -3 5 -9z"/>
<path d="M2650 2935 c7 -8 17 -15 22 -15 6 0 5 7 -2 15 -7 8 -17 15 -22 15 -6
0 -5 -7 2 -15z"/>
<path d="M2523 2909 c41 -55 36 -67 -25 -71 -50 -3 -52 -4 -61 -38 -4 -19 -15
-40 -22 -46 -15 -11 -10 -24 9 -24 6 0 12 10 13 23 0 12 6 34 12 50 9 24 16
27 54 27 55 0 71 14 53 49 -8 14 -24 35 -37 46 -20 17 -19 15 4 -16z"/>
<path d="M1170 2920 c-11 -8 -6 -9 21 -4 55 9 58 -11 10 -60 -46 -47 -56 -69
-13 -32 15 13 38 33 52 45 20 16 23 23 14 38 -13 21 -62 28 -84 13z"/>
<path d="M1078 2882 c-42 -25 -33 -32 12 -10 22 11 40 22 40 24 0 9 -27 2 -52
-14z"/>
<path d="M2730 2885 c7 -8 17 -15 22 -15 6 0 5 7 -2 15 -7 8 -17 15 -22 15 -6
0 -5 -7 2 -15z"/>
<path d="M2775 2850 c3 -5 16 -15 28 -21 22 -12 22 -12 3 10 -19 21 -43 30
-31 11z"/>
<path d="M1012 2828 c-16 -16 -15 -33 3 -48 9 -8 15 -8 15 -2 0 6 -5 12 -11
14 -9 3 -9 10 0 26 13 25 11 28 -7 10z"/>
<path d="M1788 2833 c7 -3 16 -2 19 1 4 3 -2 6 -13 5 -11 0 -14 -3 -6 -6z"/>
<path d="M1635 2821 c-3 -6 10 -7 32 -4 50 8 55 13 10 13 -20 0 -38 -4 -42 -9z"/>
<path d="M2366 2813 c-6 -14 -5 -15 5 -6 7 7 10 15 7 18 -3 3 -9 -2 -12 -12z"/>
<path d="M775 2800 c-3 -5 -1 -10 4 -10 6 0 11 5 11 10 0 6 -2 10 -4 10 -3 0
-8 -4 -11 -10z"/>
<path d="M2850 2796 c0 -2 7 -9 15 -16 9 -7 15 -8 15 -2 0 5 -7 12 -15 16 -8
3 -15 4 -15 2z"/>
<path d="M1090 2780 c0 -5 5 -10 11 -10 5 0 7 5 4 10 -3 6 -8 10 -11 10 -2 0
-4 -4 -4 -10z"/>
<path d="M1185 2760 c9 -16 18 -30 21 -30 2 0 -2 14 -11 30 -9 17 -18 30 -21
30 -2 0 2 -13 11 -30z"/>
<path d="M2347 2782 c-4 -6 -15 -9 -25 -6 -9 3 -6 -2 8 -10 25 -15 66 -23 44
-8 -6 4 -13 14 -16 22 -3 10 -6 11 -11 2z"/>
<path d="M735 2770 c-3 -5 -2 -10 4 -10 5 0 13 5 16 10 3 6 2 10 -4 10 -5 0
-13 -4 -16 -10z"/>
<path d="M1345 2750 c-8 -13 5 -13 25 0 13 8 13 10 -2 10 -9 0 -20 -4 -23 -10z"/>
<path d="M689 2723 l-24 -26 27 19 c15 10 28 22 28 27 0 12 -5 8 -31 -20z"/>
<path d="M2910 2748 c0 -12 69 -83 74 -77 3 3 -12 23 -34 44 -22 22 -40 36
-40 33z"/>
<path d="M1132 2700 c5 -17 7 -37 4 -45 -4 -13 -2 -13 14 -5 24 13 25 23 5 40
-8 7 -15 19 -15 26 0 8 -4 14 -9 14 -6 0 -6 -12 1 -30z"/>
<path d="M2504 2700 c22 -11 41 -18 44 -16 5 6 -54 36 -70 36 -7 -1 5 -10 26
-20z"/>
<path d="M1209 2693 c-13 -15 -12 -15 9 -4 23 12 28 21 13 21 -5 0 -15 -7 -22
-17z"/>
<path d="M2566 2672 c28 -25 104 -70 104 -61 0 5 -11 15 -25 21 -14 6 -25 14
-25 18 0 4 -11 12 -25 18 -30 14 -43 15 -29 4z"/>
<path d="M606 2645 c-9 -13 -16 -27 -16 -31 0 -10 30 17 41 38 15 27 -6 22
-25 -7z"/>
<path d="M3029 2613 c18 -21 42 -53 54 -70 12 -18 26 -33 30 -33 10 0 -28 55
-70 103 -43 49 -54 48 -14 0z"/>
<path d="M1830 2610 c0 -5 10 -10 23 -10 18 0 19 2 7 10 -19 13 -30 13 -30 0z"/>
<path d="M1730 2600 c-21 -7 -21 -8 -5 -9 11 0 27 4 35 9 18 11 5 11 -30 0z"/>
<path d="M1885 2590 c3 -5 16 -10 28 -10 18 0 19 2 7 10 -20 13 -43 13 -35 0z"/>
<path d="M2680 2598 c0 -5 27 -36 59 -70 32 -35 68 -74 80 -88 11 -14 20 -19
21 -12 0 7 -36 50 -80 95 -44 45 -80 79 -80 75z"/>
<path d="M1000 2569 c0 -5 5 -7 10 -4 6 3 10 8 10 11 0 2 -4 4 -10 4 -5 0 -10
-5 -10 -11z"/>
<path d="M1658 2573 c7 -3 16 -2 19 1 4 3 -2 6 -13 5 -11 0 -14 -3 -6 -6z"/>
<path d="M1950 2577 c4 -4 44 -11 91 -16 104 -12 133 -24 159 -69 12 -19 23
-32 26 -29 10 10 -34 69 -66 89 -24 14 -59 21 -124 25 -50 3 -89 3 -86 0z"/>
<path d="M537 2563 c-4 -3 -7 -11 -7 -17 0 -6 5 -5 12 2 6 6 9 14 7 17 -3 3
-9 2 -12 -2z"/>
<path d="M1515 2560 c-3 -6 1 -7 9 -4 18 7 21 14 7 14 -6 0 -13 -4 -16 -10z"/>
<path d="M1603 2563 c9 -2 23 -2 30 0 6 3 -1 5 -18 5 -16 0 -22 -2 -12 -5z"/>
<path d="M954 2535 c-10 -8 -14 -15 -8 -15 6 0 17 7 24 15 16 19 9 19 -16 0z"/>
<path d="M1416 2524 c-22 -21 -20 -27 4 -12 11 7 20 16 20 20 0 12 -7 10 -24
-8z"/>
<path d="M497 2513 c-4 -3 -7 -11 -7 -17 0 -6 5 -5 12 2 6 6 9 14 7 17 -3 3
-9 2 -12 -2z"/>
<path d="M1370 2468 c-12 -22 -12 -22 6 -6 10 10 15 20 12 24 -4 3 -12 -5 -18
-18z"/>
<path d="M3140 2464 c0 -7 9 -22 20 -35 10 -13 19 -19 20 -13 0 7 -9 22 -20
35 -10 13 -19 19 -20 13z"/>
<path d="M2240 2455 c0 -2 19 -9 42 -16 55 -14 89 -41 110 -87 16 -34 17 -35
18 -11 0 34 -64 94 -117 108 -42 12 -53 13 -53 6z"/>
<path d="M445 2430 c-10 -11 -16 -22 -14 -24 2 -2 12 7 22 20 22 29 17 32 -8
4z"/>
<path d="M857 2433 c-4 -3 -7 -11 -7 -17 0 -6 5 -5 12 2 6 6 9 14 7 17 -3 3
-9 2 -12 -2z"/>
<path d="M1319 2423 c-13 -15 -12 -15 9 -4 23 12 28 21 13 21 -5 0 -15 -7 -22
-17z"/>
<path d="M1264 2376 c-9 -15 -14 -29 -12 -32 3 -2 13 7 22 22 10 14 15 28 13
31 -3 2 -13 -7 -23 -21z"/>
<path d="M2852 2393 c2 -5 13 -28 25 -53 12 -25 24 -53 27 -62 3 -10 10 -18
15 -18 5 0 -4 32 -21 70 -17 39 -35 70 -40 70 -5 0 -8 -3 -6 -7z"/>
<path d="M3190 2386 c0 -2 13 -30 29 -62 16 -33 36 -77 45 -98 9 -22 19 -37
22 -34 6 6 -81 198 -90 198 -3 0 -6 -2 -6 -4z"/>
<path d="M386 2331 c-15 -28 -23 -51 -18 -51 10 0 55 91 48 97 -3 3 -16 -18
-30 -46z"/>
<path d="M817 2373 c-4 -3 -7 -11 -7 -17 0 -6 5 -5 12 2 6 6 9 14 7 17 -3 3
-9 2 -12 -2z"/>
<path d="M1620 2322 c0 -5 14 -7 30 -4 17 2 30 6 30 8 0 2 -13 4 -30 4 -16 0
-30 -4 -30 -8z"/>
<path d="M1445 2272 c-55 -32 -86 -55 -80 -60 3 -3 25 9 49 26 24 18 49 32 55
32 5 0 13 5 16 10 9 14 -6 11 -40 -8z"/>
<path d="M770 2269 c0 -5 5 -7 10 -4 6 3 10 8 10 11 0 2 -4 4 -10 4 -5 0 -10
-5 -10 -11z"/>
<path d="M2439 2217 c22 -32 31 -58 34 -98 l3 -54 2 61 c2 52 -2 66 -25 97
-39 51 -50 46 -14 -6z"/>
<path d="M1231 2224 c-13 -30 -14 -34 -3 -34 13 0 33 48 23 54 -4 3 -13 -6
-20 -20z"/>
<path d="M2933 2197 c9 -23 26 -131 30 -187 3 -33 4 -27 5 22 2 74 -14 164
-31 175 -6 4 -8 0 -4 -10z"/>
<path d="M1295 2138 c-19 -29 -30 -60 -33 -95 -4 -50 -22 -76 -22 -34 0 11 -4
23 -10 26 -16 10 -12 -18 7 -44 9 -13 19 -38 24 -55 6 -26 7 -22 8 24 0 30 1
63 1 73 1 22 33 93 56 125 9 12 12 22 7 22 -5 0 -22 -19 -38 -42z"/>
<path d="M1206 2153 c-7 -23 1 -90 13 -97 3 -2 5 17 3 42 -5 71 -7 80 -16 55z"/>
<path d="M300 2145 c0 -8 2 -15 4 -15 2 0 6 7 10 15 3 8 1 15 -4 15 -6 0 -10
-7 -10 -15z"/>
<path d="M282 2091 c-17 -48 -14 -63 4 -22 8 19 13 39 11 45 -2 6 -9 -5 -15
-23z"/>
<path d="M722 2100 c0 -14 2 -19 5 -12 2 6 2 18 0 25 -3 6 -5 1 -5 -13z"/>
<path d="M1870 2076 c7 -9 10 -19 7 -22 -10 -10 -39 5 -32 16 3 5 2 10 -4 10
-5 0 -12 -4 -16 -10 -3 -5 -12 -7 -20 -3 -8 3 -15 3 -15 0 0 -5 74 -30 123
-41 16 -4 27 -2 27 4 0 5 -5 10 -11 10 -5 0 -9 10 -7 23 3 19 -2 22 -31 25
-31 3 -33 2 -21 -12z"/>
<path d="M1964 2072 c3 -6 -2 -13 -11 -15 -14 -4 -13 -5 5 -6 23 -1 30 13 10
25 -6 4 -8 3 -4 -4z"/>
<path d="M2000 2056 c0 -10 9 -16 23 -17 21 0 21 -1 2 -9 -11 -4 -33 -6 -50
-4 -25 4 -27 3 -10 -5 30 -14 89 -13 110 2 17 13 16 15 -11 24 -16 6 -37 14
-46 18 -13 5 -18 2 -18 -9z"/>
<path d="M1337 2045 c-46 -16 -51 -20 -42 -36 6 -8 31 -10 88 -6 80 7 117 23
103 46 -10 15 -103 13 -149 -4z"/>
<path d="M2240 2036 c0 -8 4 -17 9 -21 5 -3 12 -19 16 -35 4 -17 10 -30 15
-30 10 0 -2 46 -19 79 -14 24 -21 27 -21 7z"/>
<path d="M3335 2016 c4 -37 11 -54 19 -45 2 2 -3 22 -10 44 l-14 40 5 -39z"/>
<path d="M2413 2024 c-17 -7 -34 -18 -38 -24 -9 -15 -1 -13 51 15 50 26 41 33
-13 9z"/>
<path d="M2510 2031 c24 -7 25 -10 23 -92 -1 -63 1 -78 8 -60 5 14 9 54 7 90
-3 65 -3 66 -33 68 -28 2 -28 1 -5 -6z"/>
<path d="M251 1974 c0 -11 3 -14 6 -6 3 7 2 16 -1 19 -3 4 -6 -2 -5 -13z"/>
<path d="M2345 1970 c-3 -5 -1 -10 4 -10 6 0 11 5 11 10 0 6 -2 10 -4 10 -3 0
-8 -4 -11 -10z"/>
<path d="M2956 1942 c-4 -13 -5 -26 -2 -29 10 -11 18 4 14 29 l-4 23 -8 -23z"/>
<path d="M1160 1942 c0 -4 9 -8 19 -8 11 0 17 4 15 8 -3 4 -12 8 -20 8 -8 0
-14 -4 -14 -8z"/>
<path d="M1864 1895 c-3 -8 -3 -19 1 -25 11 -18 25 -11 25 15 0 27 -17 34 -26
10z"/>
<path d="M3101 1894 c0 -11 3 -14 6 -6 3 7 2 16 -1 19 -3 4 -6 -2 -5 -13z"/>
<path d="M1390 1870 c0 -30 13 -40 25 -20 8 13 -4 50 -16 50 -5 0 -9 -13 -9
-30z"/>
<path d="M1170 1885 c0 -3 19 -38 41 -78 64 -110 69 -121 69 -140 0 -32 41
-171 65 -222 13 -28 33 -59 44 -69 12 -11 21 -24 21 -29 0 -14 23 -30 108 -78
39 -22 77 -49 82 -60 6 -10 16 -19 22 -19 7 0 5 7 -4 18 -8 9 -18 25 -21 35
-4 9 -14 17 -23 17 -29 0 -120 58 -159 101 -21 23 -46 62 -57 88 -11 25 -23
55 -29 66 -5 11 -13 45 -18 75 -6 30 -13 67 -17 83 -6 25 -4 27 22 28 28 1 28
1 5 8 -13 3 -29 15 -35 26 -6 10 -20 27 -31 36 -11 9 -31 37 -43 63 -21 41
-42 67 -42 51z"/>
<path d="M3364 1846 c3 -27 6 -67 6 -90 1 -28 3 -36 9 -26 9 16 -4 149 -15
159 -4 3 -4 -16 0 -43z"/>
<path d="M1260 1854 c0 -8 5 -12 10 -9 6 3 10 10 10 16 0 5 -4 9 -10 9 -5 0
-10 -7 -10 -16z"/>
<path d="M3091 1858 c0 -9 -4 -25 -7 -35 -5 -17 -5 -17 6 0 6 10 9 25 7 35 -4
15 -5 15 -6 0z"/>
<path d="M2515 1840 c-3 -5 -1 -10 4 -10 6 0 11 5 11 10 0 6 -2 10 -4 10 -3 0
-8 -4 -11 -10z"/>
<path d="M2951 1834 c0 -11 3 -14 6 -6 3 7 2 16 -1 19 -3 4 -6 -2 -5 -13z"/>
<path d="M220 1825 c-9 -70 -9 -80 1 -62 6 9 8 32 6 50 -2 18 -5 24 -7 12z"/>
<path d="M2363 1825 c-3 -9 -3 -19 1 -22 3 -4 6 1 6 10 0 8 6 18 13 20 9 4 9
6 -1 6 -7 1 -15 -6 -19 -14z"/>
<path d="M1271 1794 c0 -11 3 -14 6 -6 3 7 2 16 -1 19 -3 4 -6 -2 -5 -13z"/>
<path d="M521 1795 c1 -19 18 -51 18 -35 0 8 -4 22 -9 30 -5 8 -9 11 -9 5z"/>
<path d="M2475 1770 c-3 -5 -1 -10 4 -10 6 0 11 5 11 10 0 6 -2 10 -4 10 -3 0
-8 -4 -11 -10z"/>
<path d="M710 1754 c0 -10 5 -26 10 -34 8 -12 10 -9 7 12 -4 32 -17 50 -17 22z"/>
<path d="M1985 1739 c-11 -17 1 -21 15 -4 8 9 8 15 2 15 -6 0 -14 -5 -17 -11z"/>
<path d="M2080 1730 c23 -43 6 -90 -34 -90 -10 0 -17 -3 -13 -6 13 -14 58 8
67 32 12 31 4 70 -16 78 -11 4 -12 2 -4 -14z"/>
<path d="M212 1715 c0 -16 2 -22 5 -12 2 9 2 23 0 30 -3 6 -5 -1 -5 -18z"/>
<path d="M2420 1715 c-7 -8 -8 -15 -2 -15 5 0 15 7 22 15 7 8 8 15 2 15 -5 0
-15 -7 -22 -15z"/>
<path d="M1540 1710 c8 -5 20 -10 25 -10 6 0 3 5 -5 10 -8 5 -19 10 -25 10 -5
0 -3 -5 5 -10z"/>
<path d="M1623 1713 c-24 -2 -43 -9 -43 -15 0 -13 80 -2 95 13 6 6 6 8 0 7 -6
-1 -29 -3 -52 -5z"/>
<path d="M1971 1694 c-1 -12 6 -28 16 -35 15 -13 15 -12 6 6 -6 11 -13 27 -16
35 -4 10 -6 8 -6 -6z"/>
<path d="M2370 1690 c-9 -6 -10 -10 -3 -10 6 0 15 5 18 10 8 12 4 12 -15 0z"/>
<path d="M3367 1588 c-9 -141 -37 -290 -77 -397 -31 -84 -36 -106 -22 -97 4 2
20 44 36 93 16 48 32 95 35 103 2 8 6 20 6 25 1 6 5 21 8 35 9 32 15 81 27
200 12 121 12 150 2 150 -5 0 -12 -51 -15 -112z"/>
<path d="M1367 1631 c4 -26 1 -46 -7 -56 -7 -8 -8 -15 -3 -15 29 0 44 98 16
107 -8 3 -10 -8 -6 -36z"/>
<path d="M211 1644 c0 -11 3 -14 6 -6 3 7 2 16 -1 19 -3 4 -6 -2 -5 -13z"/>
<path d="M740 1651 c0 -6 4 -13 10 -16 6 -3 7 1 4 9 -7 18 -14 21 -14 7z"/>
<path d="M2377 1603 c-4 -3 -7 -11 -7 -17 0 -6 5 -5 12 2 6 6 9 14 7 17 -3 3
-9 2 -12 -2z"/>
<path d="M770 1581 c0 -6 4 -13 10 -16 6 -3 7 1 4 9 -7 18 -14 21 -14 7z"/>
<path d="M213 1530 c0 -25 2 -35 4 -22 2 12 2 32 0 45 -2 12 -4 2 -4 -23z"/>
<path d="M2290 1524 c0 -37 5 -56 17 -65 11 -9 14 -10 10 -2 -5 7 0 27 9 45
10 21 11 28 3 21 -19 -18 -31 -16 -25 5 3 9 1 24 -4 32 -7 11 -10 0 -10 -36z"/>
<path d="M1550 1515 c7 -9 16 -12 19 -8 4 4 10 11 15 16 5 4 -3 7 -19 7 -24 0
-26 -2 -15 -15z"/>
<path d="M1665 1520 l-50 -7 45 0 c25 -1 56 3 70 7 31 10 8 10 -65 0z"/>
<path d="M1740 1481 c-31 -59 -68 -65 -128 -21 -23 16 -39 23 -36 15 7 -18 60
-50 96 -59 22 -5 33 0 58 25 16 18 30 38 30 45 0 19 -8 17 -20 -5z"/>
<path d="M2835 1489 c-4 -6 -5 -12 -2 -15 2 -3 7 2 10 11 7 17 1 20 -8 4z"/>
<path d="M210 1475 c0 -5 5 -17 10 -25 5 -8 10 -10 10 -5 0 6 -5 17 -10 25 -5
8 -10 11 -10 5z"/>
<path d="M2801 1442 c-7 -13 -11 -26 -8 -28 8 -8 29 25 25 38 -3 8 -9 4 -17
-10z"/>
<path d="M2315 1407 c-8 -32 -3 -43 12 -25 6 7 7 22 3 33 -7 18 -8 17 -15 -8z"/>
<path d="M880 1380 c0 -6 11 -23 25 -38 14 -15 25 -23 25 -18 0 4 -11 21 -25
38 -14 16 -25 24 -25 18z"/>
<path d="M2705 1305 c-32 -36 -55 -68 -52 -71 5 -5 94 94 110 122 16 28 -2 13
-58 -51z"/>
<path d="M872 1305 c-1 -23 -7 -46 -14 -53 -7 -7 -8 -12 -2 -12 5 0 10 -46 11
-102 1 -81 5 -104 19 -117 13 -12 15 -12 8 -1 -4 8 -11 84 -14 170 -4 85 -7
137 -8 115z"/>
<path d="M240 1304 c0 -14 4 -23 9 -20 5 3 7 15 4 26 -7 28 -13 25 -13 -6z"/>
<path d="M2248 1298 c-15 -16 -21 -28 -13 -25 7 3 15 1 18 -6 2 -8 5 -8 11 1
4 7 2 12 -5 12 -7 0 -5 8 6 20 10 11 16 22 14 24 -2 2 -16 -10 -31 -26z"/>
<path d="M955 1290 c10 -11 20 -20 23 -20 3 0 -3 9 -13 20 -10 11 -20 20 -23
20 -3 0 3 -9 13 -20z"/>
<path d="M1990 1290 c-9 -6 -10 -10 -3 -10 6 0 15 5 18 10 8 12 4 12 -15 0z"/>
<path d="M1900 1260 c-30 -10 -46 -18 -35 -19 22 -1 90 21 101 32 10 10 -4 7
-66 -13z"/>
<path d="M2826 1264 c-9 -23 -7 -126 2 -120 8 5 16 136 8 136 -2 0 -7 -7 -10
-16z"/>
<path d="M2177 1256 c-9 -7 -17 -18 -17 -25 0 -6 -7 -14 -15 -17 -8 -4 -15
-10 -15 -15 0 -5 7 -9 15 -9 8 0 15 5 15 12 0 6 10 22 22 35 24 26 22 38 -5
19z"/>
<path d="M2960 1250 c8 -5 20 -10 25 -10 6 0 3 5 -5 10 -8 5 -19 10 -25 10 -5
0 -3 -5 5 -10z"/>
<path d="M261 1234 c0 -11 3 -14 6 -6 3 7 2 16 -1 19 -3 4 -6 -2 -5 -13z"/>
<path d="M1755 1240 c-29 -7 -28 -8 10 -8 22 0 49 3 60 8 17 7 15 9 -10 8 -16
0 -43 -4 -60 -8z"/>
<path d="M3028 1233 c7 -3 16 -2 19 1 4 3 -2 6 -13 5 -11 0 -14 -3 -6 -6z"/>
<path d="M2595 1195 c-16 -13 -25 -24 -20 -24 6 0 24 11 40 24 17 14 26 25 20
25 -5 0 -23 -11 -40 -25z"/>
<path d="M3110 1210 c20 -13 43 -13 35 0 -3 6 -16 10 -28 10 -18 0 -19 -2 -7
-10z"/>
<path d="M635 1165 c-120 -61 -175 -98 -163 -111 4 -3 36 14 71 39 36 25 89
56 118 68 60 25 81 39 58 39 -8 0 -46 -16 -84 -35z"/>
<path d="M3178 1193 c7 -3 16 -2 19 1 4 3 -2 6 -13 5 -11 0 -14 -3 -6 -6z"/>
<path d="M281 1170 c0 -8 4 -24 9 -35 l9 -20 0 20 c0 11 -4 27 -9 35 -9 13
-10 13 -9 0z"/>
<path d="M2075 1170 c-3 -5 -2 -10 4 -10 5 0 13 5 16 10 3 6 2 10 -4 10 -5 0
-13 -4 -16 -10z"/>
<path d="M2010 1135 c-25 -10 -29 -14 -14 -14 11 -1 29 6 40 14 23 17 19 17
-26 0z"/>
<path d="M2494 1124 c-18 -14 -18 -15 4 -4 12 6 22 13 22 15 0 8 -5 6 -26 -11z"/>
<path d="M1126 1108 c10 -14 21 -24 23 -22 3 3 -6 15 -18 27 l-24 22 19 -27z"/>
<path d="M1020 1098 c-12 -22 -12 -22 6 -6 10 10 15 20 12 24 -4 3 -12 -5 -18
-18z"/>
<path d="M1938 1113 c7 -3 16 -2 19 1 4 3 -2 6 -13 5 -11 0 -14 -3 -6 -6z"/>
<path d="M2821 1093 c-1 -18 4 -33 9 -33 12 0 12 17 0 45 -7 17 -9 15 -9 -12z"/>
<path d="M2721 1083 c-1 -19 -10 -42 -21 -53 -13 -13 -15 -20 -7 -20 23 0 48
55 38 82 -9 21 -10 21 -10 -9z"/>
<path d="M315 1076 c8 -38 76 -176 87 -176 5 0 1 15 -8 33 -34 65 -38 72 -49
97 -37 80 -36 78 -30 46z"/>
<path d="M2358 1073 c7 -3 16 -2 19 1 4 3 -2 6 -13 5 -11 0 -14 -3 -6 -6z"/>
<path d="M1144 1035 c-10 -32 -10 -35 3 -22 8 8 13 24 11 37 -2 17 -5 15 -14
-15z"/>
<path d="M3234 1050 c-5 -8 -19 -36 -31 -62 -63 -135 -202 -312 -350 -443
-106 -95 -127 -122 -46 -60 81 61 260 244 272 277 2 6 11 18 20 27 15 15 40
56 129 213 21 38 27 80 6 48z"/>
<path d="M419 1020 c-19 -16 -29 -29 -24 -30 6 0 18 8 27 19 8 10 22 21 29 23
8 3 11 8 8 11 -3 4 -21 -7 -40 -23z"/>
<path d="M1020 1026 c0 -2 8 -10 18 -17 15 -13 16 -12 3 4 -13 16 -21 21 -21
13z"/>
<path d="M2053 1023 c15 -2 37 -2 50 0 12 2 0 4 -28 4 -27 0 -38 -2 -22 -4z"/>
<path d="M1088 993 c7 -3 16 -2 19 1 4 3 -2 6 -13 5 -11 0 -14 -3 -6 -6z"/>
<path d="M2376 975 c4 -18 1 -32 -11 -45 -19 -21 -7 -28 13 -8 15 15 16 78 2
78 -6 0 -8 -11 -4 -25z"/>
<path d="M2700 970 c-9 -6 -10 -10 -3 -10 6 0 15 5 18 10 8 12 4 12 -15 0z"/>
<path d="M1935 950 c3 -5 8 -10 11 -10 2 0 4 5 4 10 0 6 -5 10 -11 10 -5 0 -7
-4 -4 -10z"/>
<path d="M2271 944 c0 -11 3 -14 6 -6 3 7 2 16 -1 19 -3 4 -6 -2 -5 -13z"/>
<path d="M990 941 c0 -9 30 -24 36 -18 2 1 -6 8 -16 15 -11 7 -20 8 -20 3z"/>
<path d="M2600 930 c-19 -11 -31 -19 -27 -20 12 0 77 28 77 34 0 10 -14 6 -50
-14z"/>
<path d="M1507 923 c-4 -3 -7 -11 -7 -17 0 -6 5 -5 12 2 6 6 9 14 7 17 -3 3
-9 2 -12 -2z"/>
<path d="M2480 899 c-87 -27 -116 -41 -70 -33 47 7 133 34 145 45 13 13 -1 11
-75 -12z"/>
<path d="M1430 900 c8 -5 22 -10 30 -10 13 0 13 1 0 10 -8 5 -22 10 -30 10
-13 0 -13 -1 0 -10z"/>
<path d="M1100 890 c0 -5 5 -10 11 -10 5 0 7 5 4 10 -3 6 -8 10 -11 10 -2 0
-4 -4 -4 -10z"/>
<path d="M1946 875 c-3 -8 -1 -15 4 -15 6 0 10 7 10 15 0 8 -2 15 -4 15 -2 0
-6 -7 -10 -15z"/>
<path d="M421 865 c0 -13 28 -50 33 -44 3 2 -4 15 -14 29 -11 14 -20 21 -19
15z"/>
<path d="M2290 845 c-24 -14 -24 -14 15 -8 54 8 80 22 40 22 -16 0 -41 -6 -55
-14z"/>
<path d="M1908 843 c7 -3 16 -2 19 1 4 3 -2 6 -13 5 -11 0 -14 -3 -6 -6z"/>
<path d="M2195 824 l-40 -12 45 5 c49 6 56 9 43 16 -4 2 -26 -1 -48 -9z"/>
<path d="M1268 823 c6 -2 18 -2 25 0 6 3 1 5 -13 5 -14 0 -19 -2 -12 -5z"/>
<path d="M1380 801 c27 -10 117 -14 108 -6 -3 3 -34 8 -69 10 -44 3 -56 2 -39
-4z"/>
<path d="M2083 803 c9 -2 25 -2 35 0 9 3 1 5 -18 5 -19 0 -27 -2 -17 -5z"/>
<path d="M1518 793 c6 -2 18 -2 25 0 6 3 1 5 -13 5 -14 0 -19 -2 -12 -5z"/>
<path d="M1928 793 c7 -3 16 -2 19 1 4 3 -2 6 -13 5 -11 0 -14 -3 -6 -6z"/>
<path d="M2008 793 c7 -3 16 -2 19 1 4 3 -2 6 -13 5 -11 0 -14 -3 -6 -6z"/>
<path d="M470 781 c0 -5 7 -12 16 -15 14 -5 15 -4 4 9 -14 17 -20 19 -20 6z"/>
<path d="M1608 783 c6 -2 18 -2 25 0 6 3 1 5 -13 5 -14 0 -19 -2 -12 -5z"/>
<path d="M1800 745 c0 -19 2 -35 4 -35 2 0 6 16 8 35 2 19 0 35 -4 35 -4 0 -8
-16 -8 -35z"/>
<path d="M1800 690 c0 -5 5 -10 11 -10 5 0 7 5 4 10 -3 6 -8 10 -11 10 -2 0
-4 -4 -4 -10z"/>
<path d="M2778 673 c-15 -18 -31 -53 -24 -53 2 0 13 16 25 35 22 38 22 44 -1
18z"/>
<path d="M2859 673 c15 -30 -18 -87 -54 -93 -20 -4 -25 -8 -15 -11 25 -10 58
8 75 42 17 32 13 79 -6 79 -6 0 -6 -6 0 -17z"/>
<path d="M560 674 c0 -9 79 -95 110 -119 14 -11 -4 13 -40 53 -64 72 -70 78
-70 66z"/>
<path d="M1813 630 c0 -25 2 -35 4 -22 2 12 2 32 0 45 -2 12 -4 2 -4 -23z"/>
<path d="M1285 650 c-18 -8 -17 -9 8 -9 15 -1 27 4 27 9 0 12 -8 12 -35 0z"/>
<path d="M1338 653 c6 -2 18 -2 25 0 6 3 1 5 -13 5 -14 0 -19 -2 -12 -5z"/>
<path d="M1478 653 c6 -2 18 -2 25 0 6 3 1 5 -13 5 -14 0 -19 -2 -12 -5z"/>
<path d="M1520 656 c0 -2 16 -6 35 -8 19 -2 35 0 35 4 0 4 -16 8 -35 8 -19 0
-35 -2 -35 -4z"/>
<path d="M1635 650 c-4 -6 6 -10 24 -10 29 0 31 -3 31 -35 0 -19 5 -35 11 -35
11 0 3 59 -10 71 -13 14 -50 19 -56 9z"/>
<path d="M2674 555 c-10 -32 -10 -35 3 -22 8 8 13 24 11 37 -2 17 -5 15 -14
-15z"/>
<path d="M1000 559 c0 -5 5 -7 10 -4 6 3 10 8 10 11 0 2 -4 4 -10 4 -5 0 -10
-5 -10 -11z"/>
<path d="M1696 551 c-4 -5 -2 -20 3 -33 9 -21 10 -21 10 10 1 32 -3 39 -13 23z"/>
<path d="M2349 513 c-2 -26 2 -47 10 -55 3 -4 5 10 3 32 -4 41 -11 53 -13 23z"/>
<path d="M710 515 c0 -2 10 -10 23 -16 20 -11 21 -11 8 4 -13 16 -31 23 -31
12z"/>
<path d="M2597 509 c7 -7 15 -10 18 -7 3 3 -2 9 -12 12 -14 6 -15 5 -6 -5z"/>
<path d="M2470 485 c-8 -9 -8 -15 -2 -15 12 0 26 19 19 26 -2 2 -10 -2 -17
-11z"/>
<path d="M1711 485 c-7 -41 -8 -165 -2 -170 12 -7 17 59 10 125 -3 30 -7 51
-8 45z"/>
<path d="M1832 445 c0 -16 2 -22 5 -12 2 9 2 23 0 30 -3 6 -5 -1 -5 -18z"/>
<path d="M1004 427 c2 -21 7 -41 10 -44 9 -10 6 40 -5 62 -7 15 -8 11 -5 -18z"/>
<path d="M2664 399 c-32 -23 -90 -58 -129 -77 -38 -19 -64 -37 -58 -39 7 -3
47 16 88 41 42 25 78 46 81 46 3 0 10 5 17 10 7 6 27 22 46 35 19 14 30 25 25
25 -6 0 -37 -19 -70 -41z"/>
<path d="M875 390 c3 -5 11 -10 16 -10 6 0 7 5 4 10 -3 6 -11 10 -16 10 -6 0
-7 -4 -4 -10z"/>
<path d="M1845 326 c3 -43 5 -101 5 -128 0 -28 4 -47 9 -43 12 7 5 167 -8 215
-9 29 -10 20 -6 -44z"/>
<path d="M1561 346 c9 -9 69 -14 63 -5 -3 5 -19 9 -36 9 -17 0 -29 -2 -27 -4z"/>
<path d="M970 334 c0 -2 15 -11 33 -20 27 -14 30 -15 19 -2 -11 14 -52 31 -52
22z"/>
<path d="M1435 330 c-30 -8 -30 -8 8 -9 20 0 37 4 37 9 0 11 -2 11 -45 0z"/>
<path d="M1518 333 c7 -3 16 -2 19 1 4 3 -2 6 -13 5 -11 0 -14 -3 -6 -6z"/>
<path d="M1133 323 c9 -2 23 -2 30 0 6 3 -1 5 -18 5 -16 0 -22 -2 -12 -5z"/>
<path d="M1273 323 c20 -2 54 -2 75 0 20 2 3 4 -38 4 -41 0 -58 -2 -37 -4z"/>
<path d="M1059 286 c7 -8 38 -24 69 -35 31 -11 77 -27 101 -36 24 -9 45 -14
48 -12 2 2 -32 17 -74 32 -43 15 -87 33 -98 40 -11 6 -29 15 -39 18 -16 6 -17
5 -7 -7z"/>
<path d="M2390 253 l-25 -15 30 7 c17 3 34 11 40 16 14 14 -17 9 -45 -8z"/>
<path d="M2324 225 c-10 -8 -14 -14 -9 -15 15 0 40 18 34 24 -3 3 -14 -1 -25
-9z"/>
<path d="M2245 200 c-8 -13 15 -13 35 0 12 8 11 10 -7 10 -12 0 -25 -4 -28
-10z"/>
<path d="M2198 183 c7 -3 16 -2 19 1 4 3 -2 6 -13 5 -11 0 -14 -3 -6 -6z"/>
<path d="M2110 169 c-25 -5 -83 -16 -130 -23 -70 -11 -77 -14 -40 -15 42 -1
228 34 239 45 6 6 -16 3 -69 -7z"/>
<path d="M1430 160 c8 -5 24 -10 34 -10 26 0 18 6 -19 14 -22 5 -26 4 -15 -4z"/>
<path d="M1490 152 c0 -10 75 -23 119 -21 18 1 14 4 -14 8 -22 4 -55 11 -72
15 -20 4 -33 4 -33 -2z"/>
<path d="M1652 128 c7 -4 40 -7 73 -7 73 1 62 6 -23 11 -34 3 -57 1 -50 -4z"/>
<path d="M1797 128 c-7 -4 9 -8 36 -8 26 0 47 4 47 10 0 11 -65 9 -83 -2z"/>
</g>
</svg>
