<?xml version="1.0" standalone="no"?>
<!DOCTYPE svg PUBLIC "-//W3C//DTD SVG 20010904//EN"
 "http://www.w3.org/TR/2001/REC-SVG-20010904/DTD/svg10.dtd">
<svg version="1.0" xmlns="http://www.w3.org/2000/svg"
 width="1200.000000pt" height="1210.000000pt" viewBox="0 0 1200.000000 1210.000000"
 preserveAspectRatio="xMidYMid meet" style="background-color:white">
<metadata>
Created by potrace 1.16, written by Peter Selinger 2001-2019
</metadata>
<g transform="translate(0.000000,1210.000000) scale(0.100000,-0.100000)"
fill="#212f51" stroke="#ffffff">
<path d="M0 6050 l0 -6050 6000 0 6000 0 0 6050 0 6050 -6000 0 -6000 0 0
-6050z m1393 2825 c286 -50 491 -206 580 -441 19 -51 22 -78 22 -194 0 -121
-3 -143 -27 -208 -53 -145 -149 -269 -280 -359 -73 -50 -184 -106 -232 -119
-14 -3 -26 -9 -26 -13 0 -3 51 -18 112 -33 167 -41 301 -110 399 -208 126
-123 179 -254 179 -441 0 -187 -62 -346 -187 -479 -116 -123 -257 -202 -444
-249 -139 -34 -225 -44 -409 -45 l-175 -1 0 85 0 85 170 6 c149 5 180 9 248
33 241 82 366 270 367 551 0 179 -49 306 -165 420 -110 110 -223 157 -415 172
l-95 8 -17 60 c-26 94 -27 92 49 100 287 31 473 189 518 440 46 260 -36 504
-202 602 -102 60 -144 66 -450 71 l-283 4 0 -1321 0 -1321 -200 0 -200 0 0
1405 0 1405 539 0 c434 0 555 -3 624 -15z m2024 -37 c12 -29 255 -657 542
-1395 286 -738 521 -1346 521 -1352 0 -8 -65 -11 -204 -11 l-204 0 -196 493
c-107 270 -200 507 -207 525 l-11 32 -430 -2 -431 -3 -202 -520 -202 -520
-112 -3 c-61 -1 -111 0 -111 3 0 4 109 275 241 603 133 328 244 603 246 609 4
10 111 13 467 15 l462 3 -233 612 -233 611 67 176 66 176 72 0 72 0 20 -52z
m1863 -1353 l0 -1405 -200 0 -200 0 0 1320 0 1320 -396 0 -395 0 -15 35 c-8
20 -23 58 -34 85 l-20 50 630 0 630 0 0 -1405z m1400 0 l0 -1405 -205 0 -205
0 0 1320 0 1320 -355 0 -355 0 0 85 0 85 560 0 560 0 0 -1405z m1670 0 l0
-1405 -200 0 -200 0 0 645 0 645 -474 0 -474 0 -35 83 -36 82 510 3 509 2 0
675 0 675 200 0 200 0 0 -1405z m-1249 -2004 c123 -22 222 -49 306 -86 l53
-24 0 -115 c0 -64 -2 -116 -4 -116 -2 0 -34 18 -71 41 -155 94 -350 150 -530
152 -170 2 -283 -35 -373 -122 -106 -104 -152 -311 -104 -469 51 -161 149
-250 522 -472 252 -150 354 -223 444 -321 80 -87 128 -164 163 -261 35 -99 44
-294 18 -401 -49 -210 -209 -400 -416 -496 -289 -134 -721 -126 -1076 21 l-73
30 0 119 0 120 43 -29 c161 -111 396 -182 601 -182 159 0 270 39 367 128 162
148 209 445 101 632 -65 112 -164 192 -467 375 -116 70 -239 148 -275 173 -87
61 -237 214 -279 285 -103 175 -125 389 -60 585 28 83 106 199 177 261 107 95
286 169 462 191 106 13 338 3 471 -19z m1916 -15 c406 -79 649 -290 718 -622
21 -104 19 -280 -4 -379 -87 -361 -393 -604 -834 -664 -43 -6 -111 -11 -151
-11 l-72 0 -32 75 c-18 41 -32 77 -32 80 0 3 33 5 74 5 360 0 560 152 633 480
25 114 22 341 -5 443 -59 218 -193 357 -402 417 -65 19 -109 23 -317 27 l-243
6 0 -1292 0 -1291 -200 0 -200 0 0 1376 0 1376 493 -5 c393 -4 508 -8 574 -21z
m2100 -1351 c293 -753 533 -1371 533 -1372 0 -2 -92 -3 -203 -3 l-204 0 -128
323 c-70 177 -162 408 -204 512 l-76 190 -416 3 -416 2 -197 -507 c-109 -280
-201 -512 -205 -516 -4 -4 -55 -6 -113 -5 l-105 3 241 595 241 595 452 5 451
5 -224 589 c-123 325 -224 596 -224 604 0 16 104 301 121 333 9 17 19 19 77
17 l67 -3 532 -1370z m-2671 -2035 c127 -35 124 -32 124 -118 0 -67 -2 -73
-17 -67 -78 33 -194 67 -259 76 -139 18 -265 -21 -327 -103 -52 -68 -60 -184
-18 -266 29 -57 123 -138 248 -211 223 -133 334 -225 381 -317 93 -183 17
-425 -166 -522 -86 -46 -162 -63 -282 -63 -115 -1 -215 17 -306 53 l-59 23 -3
77 -3 77 73 -33 c106 -49 209 -69 326 -64 70 3 110 10 143 25 194 87 220 312
54 460 -30 27 -120 89 -202 138 -184 111 -253 162 -302 228 -62 82 -76 127
-76 242 0 93 2 105 33 167 54 110 151 181 294 213 83 19 249 12 344 -15z
m-8076 -575 c5 -579 6 -591 28 -649 66 -175 194 -244 433 -234 147 7 212 30
285 102 56 57 87 123 104 228 6 37 10 285 10 606 l0 542 70 0 70 0 0 -559 c0
-625 -3 -662 -65 -787 -62 -126 -170 -210 -320 -249 -81 -21 -278 -22 -368 -1
-148 35 -267 125 -325 247 -64 135 -65 138 -69 757 -3 310 -2 570 1 578 4 12
21 14 73 12 l68 -3 5 -590z m1697 273 c132 -178 359 -483 504 -678 l264 -354
3 677 2 677 70 0 70 0 0 -795 0 -795 -69 0 -69 0 -158 212 c-87 117 -351 471
-586 786 -235 315 -428 577 -428 582 0 6 34 10 78 10 l78 0 241 -322z m1361
-475 l2 -793 -70 0 -70 0 0 795 0 796 68 -3 67 -3 3 -792z m738 11 c170 -433
311 -791 312 -795 2 -5 -32 -9 -75 -9 l-78 0 -312 788 c-172 433 -313 791
-313 795 0 4 35 7 78 7 l79 0 309 -786z m971 769 c-8 -30 -559 -1347 -567
-1356 -7 -8 -74 144 -73 167 0 6 107 269 237 584 131 316 241 585 246 598 9
22 14 24 86 24 68 0 76 -2 71 -17z m1145 12 c3 -3 -3 -33 -12 -68 l-17 -62
-342 -3 -341 -2 0 -660 0 -660 359 0 358 0 -15 -65 -16 -65 -413 0 -413 0 0
795 0 795 423 0 c233 0 426 -2 429 -5z m868 -20 c133 -42 222 -111 270 -208
85 -173 54 -382 -76 -512 -46 -47 -147 -106 -217 -129 -14 -4 19 -59 188 -313
113 -169 218 -329 234 -355 l30 -48 -87 0 -87 0 -257 389 c-142 214 -258 393
-258 399 0 5 26 12 58 15 173 19 315 120 352 252 18 63 9 179 -18 231 -43 85
-128 142 -242 164 -29 5 -113 10 -186 10 l-134 0 0 -730 0 -730 -70 0 -70 0 0
796 0 796 258 -4 c209 -4 267 -8 312 -23z m1860 -770 l0 -795 -70 0 -70 0 0
795 0 795 70 0 70 0 0 -795z m990 0 l0 -795 -70 0 -70 0 0 725 0 725 -272 2
-273 3 -3 68 -3 67 346 0 345 0 0 -795z m893 328 l247 -467 0 -328 0 -328 -70
0 -70 0 0 313 0 312 -222 413 -222 412 -218 0 -218 0 0 70 0 70 263 0 262 0
248 -467z m754 455 c-22 -55 -425 -793 -433 -792 -5 1 -26 29 -47 63 l-37 62
136 257 c75 141 157 294 181 340 l45 82 80 0 c60 0 79 -3 75 -12z m-9908 -291
l61 -78 0 -605 0 -604 -70 0 -70 0 0 692 c0 388 4 688 9 683 4 -6 36 -45 70
-88z m4391 -502 l0 -65 -219 0 c-166 0 -220 3 -224 13 -3 6 -14 36 -26 65
l-21 52 245 0 245 0 0 -65z"/>
</g>
</svg>
