<?xml version="1.0" standalone="no"?>
<!DOCTYPE svg PUBLIC "-//W3C//DTD SVG 20010904//EN"
 "http://www.w3.org/TR/2001/REC-SVG-20010904/DTD/svg10.dtd">
<svg version="1.0" xmlns="http://www.w3.org/2000/svg"
 width="474.000000pt" height="474.000000pt" viewBox="0 0 474.000000 474.000000"
 preserveAspectRatio="xMidYMid meet">
<metadata>
Created by potrace 1.16, written by Peter Selinger 2001-2019
</metadata>
<g transform="translate(0.000000,474.000000) scale(0.100000,-0.100000)"
fill="#000000" stroke="#FFFFFF">
<path d="M165 3449 c-3 -8 -4 -255 -3 -549 l3 -535 78 -3 77 -3 0 516 0 515
96 0 c52 0 116 -5 141 -11 62 -16 107 -63 123 -129 34 -143 -41 -274 -166
-288 -50 -5 -58 -13 -50 -48 6 -21 12 -24 49 -24 62 0 145 -44 182 -98 24 -35
30 -55 33 -112 9 -153 -65 -235 -224 -247 l-74 -6 0 -33 c0 -32 2 -34 33 -34
147 0 291 45 355 111 70 70 97 175 72 269 -22 82 -148 180 -232 180 -29 0 -21
15 16 28 55 20 130 95 156 153 31 74 26 169 -13 228 -30 45 -99 94 -157 112
-19 6 -137 14 -262 16 -187 4 -229 3 -233 -8z"/>
<path d="M1315 3390 l-27 -70 90 -238 89 -237 -179 -5 -180 -5 -88 -217 c-117
-287 -111 -260 -59 -256 l44 3 79 203 79 202 167 0 167 0 80 -202 79 -203 69
-3 c37 -2 74 -1 80 2 9 3 -46 156 -176 493 -249 641 -229 596 -261 600 -24 3
-28 -2 -53 -67z"/>
<path d="M1640 3457 c0 -2 5 -18 11 -36 l11 -31 154 0 154 0 2 -512 3 -513 78
-3 77 -3 -2 548 -3 548 -242 3 c-134 1 -243 1 -243 -1z"/>
<path d="M2237 3453 c-4 -3 -7 -19 -7 -35 l0 -28 140 0 140 0 2 -512 3 -513
78 -3 77 -3 0 551 0 550 -213 0 c-118 0 -217 -3 -220 -7z"/>
<path d="M3165 3449 c-3 -4 -4 -121 -4 -261 l2 -253 -197 -3 c-108 -1 -196 -5
-196 -8 0 -3 7 -18 15 -34 l16 -30 182 0 182 0 0 -247 0 -248 78 -3 77 -3 0
551 0 551 -75 -2 c-42 -1 -78 -5 -80 -10z"/>
<path d="M2591 2125 c-121 -34 -190 -115 -199 -234 -9 -128 51 -212 231 -322
193 -118 236 -170 223 -272 -14 -102 -74 -166 -171 -180 -52 -8 -165 16 -226
48 -27 14 -51 25 -54 25 -3 0 -5 -18 -5 -40 0 -34 4 -42 30 -55 81 -42 257
-57 355 -31 148 39 230 139 229 281 0 125 -59 203 -233 307 -132 79 -171 109
-197 154 -49 84 -22 204 56 244 73 37 236 19 312 -34 31 -22 38 -20 38 8 0 55
-15 72 -82 91 -86 24 -238 29 -307 10z"/>
<path d="M3163 1598 l2 -533 77 -3 78 -3 2 503 3 503 95 0 c118 0 175 -20 224
-76 45 -53 60 -110 54 -211 -9 -158 -84 -238 -223 -238 -30 0 -55 -2 -55 -5 0
-20 33 -65 48 -65 55 0 155 25 209 51 167 81 234 270 154 433 -32 65 -65 97
-136 133 -67 34 -137 43 -340 43 l-195 0 3 -532z"/>
<path d="M4108 2064 l-25 -66 83 -217 c45 -119 85 -224 89 -233 6 -16 -7 -18
-171 -20 l-177 -3 -89 -219 c-48 -121 -88 -226 -88 -233 0 -10 11 -13 38 -11
l37 3 79 198 78 197 163 0 163 0 78 -197 79 -198 78 -3 c42 -2 77 0 77 4 0 4
-84 224 -187 488 -102 265 -194 501 -204 526 -14 38 -22 45 -47 48 -28 3 -31
0 -54 -64z"/>
<path d="M167 813 c-11 -11 -8 -408 4 -462 21 -101 84 -152 194 -159 110 -7
176 24 218 101 21 40 22 53 22 282 l0 240 -25 0 -25 0 -5 -242 c-6 -270 -8
-277 -81 -316 -45 -24 -149 -18 -188 10 -56 42 -61 66 -61 321 l0 232 -23 0
c-13 0 -27 -3 -30 -7z"/>
<path d="M730 810 c0 -5 101 -145 225 -310 190 -253 229 -300 250 -300 l25 0
0 310 0 310 -25 0 -25 0 -2 -262 -3 -263 -195 260 c-163 218 -199 261 -222
263 -16 2 -28 -2 -28 -8z"/>
<path d="M1357 814 c-4 -4 -7 -144 -7 -311 l0 -303 30 0 30 0 -2 308 c-3 300
-3 307 -23 310 -12 2 -24 0 -28 -4z"/>
<path d="M1520 808 c0 -7 53 -147 117 -310 115 -289 119 -298 146 -298 15 0
27 4 27 10 0 9 -198 519 -225 578 -11 24 -21 32 -40 32 -14 0 -25 -6 -25 -12z"/>
<path d="M2011 801 c-6 -10 -51 -116 -100 -235 -79 -192 -88 -221 -79 -247 5
-16 13 -29 17 -29 7 0 221 507 221 523 0 15 -50 6 -59 -12z"/>
<path d="M2190 510 l0 -310 160 0 c90 0 160 4 160 9 0 5 3 16 6 25 5 14 -10
16 -135 16 l-141 0 0 255 0 255 130 0 130 0 10 26 c6 14 10 27 10 30 0 2 -74
4 -165 4 l-165 0 0 -310z"/>
<path d="M2630 510 l0 -310 30 0 30 0 0 286 0 287 69 -5 c89 -7 131 -30 150
-85 27 -76 -18 -143 -113 -167 l-45 -12 101 -152 c97 -146 102 -152 135 -152
l33 0 -56 86 c-30 48 -71 110 -90 138 l-34 50 37 18 c52 25 70 45 89 94 38
101 -17 200 -124 223 -29 6 -89 11 -132 11 l-80 0 0 -310z"/>
<path d="M3180 798 c-34 -17 -51 -35 -68 -70 -44 -88 -10 -156 115 -233 101
-62 119 -79 133 -120 23 -71 -37 -135 -127 -135 -21 1 -62 9 -90 19 l-53 18 0
-27 c0 -33 32 -50 112 -57 77 -8 138 11 179 53 29 30 34 42 37 98 4 62 3 65
-34 105 -20 23 -67 60 -104 82 -108 64 -137 102 -125 161 16 73 116 96 229 52
13 -5 16 0 16 24 0 27 -5 32 -37 41 -63 18 -134 13 -183 -11z"/>
<path d="M3527 814 c-4 -4 -7 -144 -7 -311 l0 -303 30 0 30 0 -2 308 c-3 300
-3 307 -23 310 -12 2 -24 0 -28 -4z"/>
<path d="M3694 805 c-15 -38 1 -45 111 -45 l105 0 0 -280 0 -280 25 0 25 0 0
310 0 310 -130 0 c-107 0 -132 -3 -136 -15z"/>
<path d="M4010 790 l0 -30 84 0 85 0 85 -159 86 -159 0 -121 0 -121 25 0 25 0
0 133 -1 132 -93 175 -93 175 -101 3 -102 3 0 -31z"/>
<path d="M4470 685 c-69 -132 -70 -135 -54 -160 9 -14 18 -24 19 -23 7 8 165
307 165 312 0 3 -13 6 -29 6 -27 0 -34 -9 -101 -135z"/>
<path d="M720 468 l0 -268 30 0 30 0 0 233 -1 232 -29 35 -29 35 -1 -267z"/>
</g>
</svg>
