<?xml version="1.0" standalone="no"?>
<!DOCTYPE svg PUBLIC "-//W3C//DTD SVG 20010904//EN"
 "http://www.w3.org/TR/2001/REC-SVG-20010904/DTD/svg10.dtd">
<svg version="1.0" xmlns="http://www.w3.org/2000/svg"
 width="600.000000pt" height="600.000000pt" viewBox="0 0 600.000000 600.000000"
 preserveAspectRatio="xMidYMid meet">
<metadata>
Created by potrace 1.16, written by Peter Selinger 2001-2019
</metadata>
<g transform="translate(0.000000,600.000000) scale(0.100000,-0.100000)"
fill="#000000" stroke="none">
<path d="M750 3000 l0 -1160 2250 0 2250 0 0 1160 0 1160 -2250 0 -2250 0 0
-1160z m930 30 l0 -260 -50 0 c-47 0 -50 1 -50 26 l0 27 -25 -27 c-61 -65
-140 -53 -182 29 -24 46 -27 189 -6 250 32 87 111 109 183 49 l30 -26 0 96 0
96 50 0 50 0 0 -260z m3230 186 l0 -65 53 -3 c51 -3 52 -4 55 -35 l3 -33 -55
0 -56 0 0 -114 c0 -129 5 -138 70 -140 30 0 40 -5 44 -21 8 -29 -7 -38 -68
-43 -67 -5 -100 2 -126 28 -18 18 -20 34 -20 155 l0 135 -41 0 c-39 0 -40 1
-37 33 3 29 6 32 41 35 l37 3 0 65 0 64 50 0 50 0 0 -64z m-3693 -81 c33 -22
53 -73 53 -134 l0 -50 -102 -3 -103 -3 2 -40 c4 -57 31 -80 92 -79 27 1 58 7
69 13 19 10 22 8 28 -15 12 -46 -14 -59 -121 -59 -90 0 -95 1 -124 29 -17 17
-36 46 -41 65 -21 77 -7 202 28 249 38 50 161 65 219 27z m773 12 c51 -18 80
-67 80 -138 l0 -58 -102 -3 -103 -3 3 -35 c8 -85 70 -108 175 -65 14 6 17 2
17 -28 0 -30 -4 -37 -31 -46 -18 -6 -62 -11 -98 -11 -77 0 -120 21 -148 72
-21 40 -24 174 -5 229 28 82 118 118 212 86z m449 2 c53 -19 61 -48 61 -224
l0 -155 -50 0 -50 0 0 137 c0 113 -3 140 -17 155 -23 25 -37 23 -78 -13 l-35
-31 0 -124 0 -124 -50 0 -50 0 0 191 0 190 47 -3 c44 -3 48 -5 53 -32 l5 -28
20 22 c21 24 70 49 96 50 9 0 30 -5 48 -11z m520 0 c53 -18 75 -75 75 -189 1
-116 -19 -165 -76 -193 -32 -16 -43 -17 -73 -7 -19 6 -44 23 -54 37 l-20 25
-3 -84 -3 -83 -47 -3 -48 -3 0 251 0 251 47 -3 c40 -3 48 -6 53 -27 5 -22 6
-23 20 -6 15 18 65 44 86 45 6 0 25 -5 43 -11z m677 -13 c45 -30 59 -72 59
-181 0 -160 -36 -200 -171 -193 -59 3 -77 8 -97 26 -30 28 -47 90 -47 169 1
114 29 173 94 193 42 13 132 5 162 -14z m565 14 c59 -16 81 -49 88 -130 l7
-70 -103 0 -103 0 0 -38 c0 -86 64 -111 173 -67 14 6 17 2 17 -28 0 -30 -4
-37 -31 -46 -18 -6 -62 -11 -98 -11 -76 0 -121 21 -146 69 -20 39 -21 198 -1
244 30 72 107 102 197 77z m402 -4 c49 -20 70 -50 71 -99 l1 -42 -41 -3 c-41
-3 -41 -3 -48 37 -11 71 -79 77 -107 9 -17 -42 -18 -138 0 -170 24 -46 98 -62
153 -34 23 12 27 12 32 -1 21 -55 -22 -83 -126 -83 -104 0 -150 40 -170 146
-13 72 2 156 35 197 40 50 136 71 200 43z m-1381 -38 l3 -43 17 31 c15 27 69
60 80 49 2 -2 2 -24 0 -49 -3 -39 -7 -46 -26 -46 -57 -1 -76 -45 -76 -174 l0
-106 -50 0 -50 0 0 183 c0 101 3 187 7 190 3 4 26 7 49 7 l43 0 3 -42z m666
-118 c4 -218 -3 -276 -38 -312 -25 -24 -36 -28 -89 -28 -33 0 -62 4 -65 8 -11
18 7 52 28 52 56 1 67 40 66 255 -1 94 -1 174 0 178 0 4 21 7 48 5 l47 -3 3
-155z"/>
<path d="M1481 3061 c-38 -38 -39 -173 -1 -211 23 -23 54 -16 80 18 15 19 20
40 20 88 0 77 -5 91 -41 109 -35 19 -35 19 -58 -4z"/>
<path d="M2860 3073 c-41 -15 -50 -35 -50 -112 1 -79 9 -99 48 -120 28 -15 60
0 66 32 19 92 11 171 -20 194 -19 14 -21 14 -44 6z"/>
<path d="M3504 3079 c-16 -18 -19 -37 -19 -126 0 -97 2 -106 23 -123 55 -45
97 23 89 147 -6 109 -47 153 -93 102z"/>
</g>
</svg>
