<?xml version="1.0" encoding="utf-8"?>
<!-- Generator: Adobe Illustrator 19.2.1, SVG Export Plug-In . SVG Version: 6.00 Build 0)  -->
<svg version="1.1" id="layer" xmlns="http://www.w3.org/2000/svg" xmlns:xlink="http://www.w3.org/1999/xlink" x="0px" y="0px"
	 viewBox="0 0 652 652" style="enable-background:new 0 0 652 652;" xml:space="preserve">
<style type="text/css">
	.st0{fill:#C00418;}
	.st1{fill-rule:evenodd;clip-rule:evenodd;fill:#FFFFFF;}
	.st2{fill:#FFFFFF;}
</style>
<rect x="25.6" y="262.7" class="st0" width="600" height="126.3"/>
<path class="st1" d="M329.8,326.9c0-19.8-6.8-25.4-14.8-25.4c-6,0-10.4,2.8-14.7,8.8V303h-12.7v62.9h12.7v-22.4
	c2.4,4.5,7.3,9.6,13.6,9.6C322.3,353.1,329.8,347.5,329.8,326.9 M317,327.4c0,12.2-3.2,15.6-7.1,15.6c-5.3,0-9.6-5.1-9.6-9.9v-15.2
	c1.5-2.8,5.1-6.3,9.3-6.3C313.8,311.6,317,315.1,317,327.4"/>
<path class="st1" d="M415.3,327.3c0-18.6-4.3-25.8-20.5-25.8c-16,0-20.3,7.2-20.3,25.8c0,18.4,4.3,25.6,20.3,25.6
	C411,352.9,415.3,345.7,415.3,327.3 M402.7,327.3c0,14.6-2.6,18.2-7.8,18.2c-5.1,0-7.6-3.6-7.6-18.2c0-14.8,2.5-18.4,7.6-18.4
	C400.1,308.9,402.7,312.5,402.7,327.3"/>
<path class="st1" d="M439.6,284h-12.7v11.9h12.7V284z M439.6,347v-44h-12.7v45.7c0,6.5-1.7,10.3-8,10.3c-1.1,0-1.7-0.2-3.3-0.4
	l-0.7,7.4c2.1,0.6,6.1,1,9,1C437.3,367,439.6,358.6,439.6,347"/>
<path class="st1" d="M492.5,328.2v-6.4c0-12.9-4.6-20.3-18.8-20.3c-14.8,0-21,6.8-21,27.4c0,14.4,4.3,24,21.5,24
	c7,0,13.2-1.6,16.8-4.1l-0.9-8.1c-5.1,3.1-9.4,3.7-13.4,3.7c-6.1,0-11-2.6-11-13.5v-2.7H492.5z M480.3,321.4h-14.6
	c0-8.3,2.3-13.3,7.7-13.3C478.6,308.2,480.9,313.1,480.3,321.4"/>
<path class="st1" d="M101.3,328.2v-6.4c0-12.9-4.6-20.3-18.8-20.3c-14.8,0-21,6.8-21,27.4c0,14.4,4.3,24,21.6,24
	c7,0,13.2-1.6,16.8-4.1l-0.9-8.1c-5.1,3.1-9.4,3.7-13.4,3.7c-6.1,0-11-2.6-11-13.5v-2.7H101.3z M89.1,321.4H74.5
	c0-8.3,2.3-13.3,7.7-13.3C87.4,308.2,89.7,313.1,89.1,321.4"/>
<path class="st1" d="M154.2,351.4V284h-12.7v26.3c-4.3-6.1-8.8-8.8-14.7-8.8c-8,0-14.8,5.6-14.8,25.4c0,20.6,7.5,26.2,15.9,26.2
	c6.3,0,11.2-5.1,13.6-9.6v7.9H154.2z M141.5,333.1c0,4.9-4.2,9.9-9.6,9.9c-4,0-7.1-3.4-7.1-15.6c0-12.3,3.2-15.8,7.4-15.8
	c4.2,0,7.8,3.5,9.3,6.3V333.1z"/>
<path class="st1" d="M205.2,328.2v-6.4c0-12.9-4.6-20.3-18.8-20.3c-14.8,0-21,6.8-21,27.4c0,14.4,4.3,24,21.5,24
	c7,0,13.2-1.6,16.8-4.1l-0.9-8.1c-5.1,3.1-9.4,3.7-13.4,3.7c-6.1,0-11-2.6-11-13.5v-2.7H205.2z M193,321.4h-14.6
	c0-8.3,2.3-13.3,7.7-13.3C191.3,308.2,193.5,313.1,193,321.4"/>
<path class="st2" d="M542.4,320.8v-1.4c0-11.5-4.9-17.9-17.8-17.9c-15.3,0-23,7.7-23,25c0,15.6,5,26.4,23.7,26.4
	c7,0,13.3-2.6,15.9-5.1l-1.2-8.2c-3.8,3.1-8.6,4.1-11.4,4.1c-8.4,0-14.4-3.6-14.4-16.4c0-13.4,4.4-18.3,9.9-18.3
	c4.3,0,6.4,2.5,6.4,10.4v1.4H542.4z"/>
<path class="st2" d="M367.1,303c-8.6,0-10.3,5.5-13.3,11.5V303H341v48.4h12.7v-27.1c1.4-2.7,2-10.1,12.4-9.1L367.1,303z"/>
<path class="st2" d="M260.1,351.4v-37.4c0-8.3-4.5-12.4-12.8-12.4c-6.7,0-12.9,4.2-16.7,9.7V303h-12.7v48.4h12.7V320
	c2-3.8,7.1-8.4,11.2-8.4c3.3,0,5.6,1.6,5.6,7.3v32.5H260.1z"/>
<path class="st2" d="M587.2,350.2l-0.5-6.9c-1.5,0.7-3.1,1.1-4.6,1.1c-4.9,0-10.2-1.6-10.2-6.3v-26.8h14.4V303h-14.4V286h-12.6V303
	h-9.7v8.3h9.7v28.2c0,9,4.2,13,14.5,13C576.7,352.6,584.5,351.7,587.2,350.2"/>
</svg>
