<?xml version="1.0" encoding="UTF-8" standalone="no"?>
<svg
   xmlns:dc="http://purl.org/dc/elements/1.1/"
   xmlns:cc="http://creativecommons.org/ns#"
   xmlns:rdf="http://www.w3.org/1999/02/22-rdf-syntax-ns#"
   xmlns:svg="http://www.w3.org/2000/svg"
   xmlns="http://www.w3.org/2000/svg"
   viewBox="0 0 1009.7067 179.06667"
   height="179.06667"
   width="1009.7067"
   xml:space="preserve"
   id="svg2"
   version="1.1"><metadata
     id="metadata8"><rdf:RDF><cc:Work
         rdf:about=""><dc:format>image/svg+xml</dc:format><dc:type
           rdf:resource="http://purl.org/dc/dcmitype/StillImage" /></cc:Work></rdf:RDF></metadata><defs
     id="defs6" /><g
     transform="matrix(1.3333333,0,0,-1.3333333,0,179.06667)"
     id="g10"><g
       transform="scale(0.1)"
       id="g12"><path
         id="path14"
         style="fill:#231f20;fill-opacity:1;fill-rule:nonzero;stroke:none"
         d="M 671.48,1312.97 C 317.77,1312.97 30,1025.2 30,671.488 30,317.77 317.77,30 671.48,30 h 6229.87 c 353.71,0 641.47,287.77 641.47,641.488 0,353.712 -287.76,641.482 -641.47,641.482 z M 6901.35,0 H 671.48 C 301.227,0 0,301.23 0,671.488 0,1041.75 301.227,1342.97 671.48,1342.97 h 6229.87 c 370.25,0 671.47,-301.22 671.47,-671.482 C 7572.82,301.23 7271.6,0 6901.35,0" /><path
         id="path16"
         style="fill:#231f20;fill-opacity:1;fill-rule:nonzero;stroke:none"
         d="m 1331.21,792.883 v -78.281 h 312.28 V 580.297 H 1331.21 V 371.828 h -206 v 576.789 h 534.76 V 792.883 h -328.76" /><path
         id="path18"
         style="fill:#231f20;fill-opacity:1;fill-rule:nonzero;stroke:none"
         d="m 2109.08,597.602 -70.87,220 -70.85,-220 z m 37.08,-115.364 h -216.71 l -35.43,-110.41 H 1690.5 l 203.52,576.789 H 2189 l 201.88,-576.789 h -209.29 l -35.43,110.41" /><path
         id="path20"
         style="fill:#231f20;fill-opacity:1;fill-rule:nonzero;stroke:none"
         d="m 2424.71,656.926 c 0,174.679 137.6,310.637 382.32,310.637 101.35,0 179.63,-21.426 248.85,-56.028 V 740.969 c -44.5,31.308 -117.01,55.207 -199.41,55.207 -131.83,0 -206.81,-55.207 -206.81,-134.309 0,-79.922 76.63,-135.957 206.81,-135.957 84.04,0 156.55,24.719 201.05,60.149 V 419.621 c -77.45,-45.32 -152.44,-66.75 -256.25,-66.75 -241.43,0 -376.56,131.836 -376.56,304.055" /><path
         id="path22"
         style="fill:#231f20;fill-opacity:1;fill-rule:nonzero;stroke:none"
         d="M 3730.76,518.496 V 371.828 h -537.24 v 576.789 h 534.76 V 801.945 H 3399.52 V 731.074 H 3711.8 V 595.949 h -312.28 v -77.453 h 331.24" /><path
         id="path24"
         style="fill:#231f20;fill-opacity:1;fill-rule:nonzero;stroke:none"
         d="M 4380.11,1031.01 H 4589.4 L 4343.03,272.949 h -209.29 l 246.37,758.061" /><path
         id="path26"
         style="fill:#231f20;fill-opacity:1;fill-rule:nonzero;stroke:none"
         d="m 5460.37,661.867 c 0,82.395 -60.14,138.43 -154.08,138.43 -94.75,0 -154.91,-56.035 -154.91,-138.43 0,-83.222 60.16,-141.726 154.91,-141.726 93.94,0 154.08,58.504 154.08,141.726 z m -529.81,1.653 c 0,175.507 145.02,304.043 376.55,304.043 229.07,0 374.91,-128.536 374.91,-304.043 0,-172.219 -145.84,-310.649 -375.73,-310.649 -230.71,0 -375.73,139.262 -375.73,310.649" /><path
         id="path28"
         style="fill:#231f20;fill-opacity:1;fill-rule:nonzero;stroke:none"
         d="M 6444.26,948.617 V 371.828 h -262.85 l -202.7,364.199 V 371.828 h -182.92 v 576.789 h 271.09 l 195.28,-357.609 v 357.609 h 182.1" /></g></g></svg>