<?xml version="1.0" encoding="utf-8"?>
<!-- Generator: Adobe Illustrator 24.2.3, SVG Export Plug-In . SVG Version: 6.00 Build 0)  -->
<svg version="1.1" id="Ebene_1" xmlns="http://www.w3.org/2000/svg" xmlns:xlink="http://www.w3.org/1999/xlink" x="0px" y="0px"
	 viewBox="0 0 841.9 595.3" style="enable-background:new 0 0 841.9 595.3;" xml:space="preserve">
<g>
	<g>
		<path d="M732.4,364.8h-623c-37,0-67.1-30.1-67.1-67.1c0-37,30.1-67.1,67.1-67.1h623c37,0,67.1,30.1,67.1,67.1
			C799.6,334.7,769.5,364.8,732.4,364.8z M109.5,233.5c-35.4,0-64.1,28.8-64.1,64.1c0,35.4,28.8,64.1,64.1,64.1h623
			c35.4,0,64.1-28.8,64.1-64.1c0-35.4-28.8-64.1-64.1-64.1H109.5z"/>
	</g>
	<g>
		<path d="M175.4,285.5v7.8h31.2v13.4h-31.2v20.8h-20.6v-57.7h53.5v15.6H175.4z"/>
		<path d="M256.9,316.6h-21.7l-3.5,11h-20.4l20.4-57.7h29.5l20.2,57.7h-20.9L256.9,316.6z M253.2,305l-7.1-22l-7.1,22H253.2z"/>
		<path d="M284.8,299.1c0-17.5,13.8-31.1,38.2-31.1c10.1,0,18,2.1,24.9,5.6v17.1c-4.4-3.1-11.7-5.5-19.9-5.5
			c-13.2,0-20.7,5.5-20.7,13.4c0,8,7.7,13.6,20.7,13.6c8.4,0,15.7-2.5,20.1-6v16.6c-7.7,4.5-15.2,6.7-25.6,6.7
			C298.3,329.5,284.8,316.3,284.8,299.1z"/>
		<path d="M415.4,312.9v14.7h-53.7v-57.7h53.5v14.7h-32.9v7.1h31.2v13.5h-31.2v7.7H415.4z"/>
		<path d="M480.3,261.7h20.9l-24.6,75.8h-20.9L480.3,261.7z"/>
		<path d="M535.4,298.4c0-17.6,14.5-30.4,37.7-30.4c22.9,0,37.5,12.9,37.5,30.4c0,17.2-14.6,31.1-37.6,31.1
			C549.9,329.5,535.4,315.6,535.4,298.4z M588.3,298.6c0-8.2-6-13.8-15.4-13.8c-9.5,0-15.5,5.6-15.5,13.8c0,8.3,6,14.2,15.5,14.2
			C582.3,312.8,588.3,306.9,588.3,298.6z"/>
		<path d="M686.7,269.9v57.7h-26.3l-20.3-36.4v36.4h-18.3v-57.7H649l19.5,35.8v-35.8H686.7z"/>
	</g>
</g>
</svg>
