<?xml version="1.0" standalone="no"?>
<!DOCTYPE svg PUBLIC "-//W3C//DTD SVG 20010904//EN"
 "http://www.w3.org/TR/2001/REC-SVG-20010904/DTD/svg10.dtd">
<svg version="1.0" xmlns="http://www.w3.org/2000/svg"
 width="1000.000000pt" height="403.000000pt" viewBox="0 0 1000.000000 403.000000"
 preserveAspectRatio="xMidYMid meet">
<metadata>
Created by potrace 1.16, written by Peter Selinger 2001-2019
</metadata>
<g transform="translate(0.000000,403.000000) scale(0.100000,-0.100000)"
fill="#000000" stroke="none">
<path d="M2000 3675 c0 -195 3 -355 8 -355 4 0 88 81 187 180 l180 180 -175
175 c-96 96 -180 175 -187 175 -10 0 -13 -76 -13 -355z"/>
<path d="M1482 3958 c3 -7 45 -163 94 -346 48 -183 93 -331 97 -329 16 5 258
430 250 438 -16 14 -426 249 -435 249 -6 0 -8 -6 -6 -12z"/>
<path d="M2436 3637 c-49 -182 -91 -338 -93 -344 -3 -7 0 -13 7 -13 8 0 415
229 439 247 6 4 -245 437 -255 440 -5 2 -49 -147 -98 -330z"/>
<path d="M4810 3805 c-86 -29 -130 -88 -130 -175 0 -102 57 -155 201 -191 103
-25 132 -45 132 -89 0 -68 -82 -101 -159 -64 -33 16 -74 80 -74 117 0 24 -15
21 -77 -14 -58 -33 -59 -38 -27 -100 46 -91 129 -139 240 -139 145 0 234 76
234 200 0 120 -49 164 -235 210 -61 15 -105 46 -105 73 0 38 34 61 89 61 57 0
102 -28 121 -76 8 -18 15 -35 16 -37 8 -10 104 63 104 79 0 31 -63 103 -112
128 -59 31 -155 38 -218 17z"/>
<path d="M5358 3806 c-111 -41 -163 -123 -175 -276 -13 -171 37 -301 136 -352
75 -39 174 -40 246 0 87 48 135 156 135 308 0 148 -52 259 -143 306 -52 26
-149 33 -199 14z m148 -137 c46 -38 69 -186 44 -287 -17 -72 -50 -102 -110
-102 -41 0 -52 4 -74 30 -32 39 -46 89 -46 171 0 141 48 216 133 205 21 -2 45
-10 53 -17z"/>
<path d="M9126 3805 c-82 -29 -127 -80 -134 -154 -10 -104 65 -185 198 -212
113 -23 148 -52 135 -110 -9 -40 -54 -63 -112 -56 -56 6 -96 43 -113 103 -7
24 -14 44 -16 44 -2 0 -28 -12 -59 -27 -66 -33 -69 -46 -22 -123 47 -79 107
-114 205 -119 41 -2 92 2 114 8 45 14 103 62 125 104 21 42 20 133 -2 180 -22
47 -95 92 -175 108 -86 17 -138 43 -146 73 -12 50 53 86 124 67 42 -12 61 -29
86 -79 l17 -33 47 27 c65 37 66 38 47 75 -56 112 -199 167 -319 124z"/>
<path d="M5742 3553 c3 -233 4 -250 25 -289 46 -87 113 -119 235 -113 91 5
143 34 185 106 l28 48 3 248 4 247 -71 0 -71 0 0 -229 0 -229 -26 -31 c-21
-26 -33 -31 -69 -31 -101 0 -105 12 -105 295 l0 225 -71 0 -71 0 4 -247z"/>
<path d="M6280 3740 l0 -60 85 0 85 0 0 -260 0 -260 70 0 70 0 0 260 0 260 85
0 85 0 0 60 0 60 -240 0 -240 0 0 -60z"/>
<path d="M6820 3480 l0 -320 70 0 70 0 0 130 0 130 100 0 100 0 0 -130 0 -130
65 0 65 0 0 320 0 320 -65 0 -65 0 0 -125 0 -125 -100 0 -100 0 0 125 0 125
-70 0 -70 0 0 -320z"/>
<path d="M7860 3787 c0 -8 15 -123 34 -258 19 -134 38 -272 42 -307 l7 -63 70
3 71 3 13 90 c8 50 19 133 26 185 l12 95 23 -170 c13 -93 26 -178 28 -187 5
-15 17 -18 73 -18 l68 0 37 268 c20 147 39 291 43 320 l6 52 -66 0 -65 0 -6
-57 c-3 -32 -8 -92 -12 -133 -10 -120 -20 -125 -33 -19 -6 51 -17 120 -23 152
l-11 57 -62 0 -62 0 -21 -137 c-12 -76 -22 -149 -22 -162 0 -55 -9 -9 -19 99
-6 63 -14 134 -17 158 l-6 42 -64 0 c-46 0 -64 -4 -64 -13z"/>
<path d="M8460 3480 l0 -320 215 0 215 0 0 60 0 60 -145 0 -145 0 0 75 0 75
130 0 130 0 0 65 0 65 -130 0 -130 0 0 60 0 60 145 0 145 0 0 60 0 60 -215 0
-215 0 0 -320z"/>
<path d="M9520 3740 l0 -60 83 0 82 0 -3 -260 -3 -260 71 0 70 0 0 260 0 260
85 0 85 0 0 60 0 60 -235 0 -235 0 0 -60z"/>
<path d="M1002 3757 c6 -28 343 -607 353 -607 6 0 39 108 74 241 49 185 61
243 51 249 -7 4 -51 18 -99 30 -119 31 -342 90 -364 97 -13 3 -18 0 -15 -10z"/>
<path d="M2839 3469 c-96 -166 -175 -306 -177 -310 -2 -5 5 -9 15 -9 35 1 478
126 477 136 -6 39 -129 484 -134 484 -4 0 -85 -136 -181 -301z"/>
<path d="M580 3442 c0 -9 493 -502 503 -502 4 0 7 115 7 255 l0 255 -255 0
c-140 0 -255 -3 -255 -8z"/>
<path d="M3175 3193 l-250 -253 258 0 257 0 0 255 c0 140 -3 254 -7 253 -5 0
-120 -115 -258 -255z"/>
<path d="M1537 3157 c-115 -48 -196 -87 -195 -94 3 -13 337 -267 344 -260 4 4
64 400 64 424 0 7 -3 13 -7 12 -5 0 -97 -37 -206 -82z m127 -69 c-4 -24 -12
-71 -18 -105 l-11 -61 -77 56 c-43 32 -78 62 -79 67 -1 10 153 82 179 84 9 1
11 -10 6 -41z"/>
<path d="M2273 3213 c3 -16 17 -113 32 -218 15 -104 28 -191 30 -193 2 -2 83
56 180 128 97 73 173 135 169 140 -5 4 -61 29 -124 55 -63 26 -151 63 -194 81
-44 19 -84 34 -89 34 -5 0 -7 -12 -4 -27z m277 -164 c0 -4 -37 -35 -82 -69
l-83 -61 -7 48 c-3 26 -10 75 -15 109 l-9 61 98 -41 c54 -22 98 -43 98 -47z"/>
<path d="M502 3095 c-220 -59 -251 -70 -241 -79 2 -2 141 -82 309 -179 238
-137 306 -172 307 -159 4 26 -121 475 -132 478 -6 1 -115 -26 -243 -61z"/>
<path d="M1810 2835 l0 -205 205 0 205 0 0 205 0 205 -205 0 -205 0 0 -205z"/>
<path d="M3445 2855 c-165 -96 -301 -178 -302 -182 -3 -7 456 -134 483 -133 6
0 27 62 47 138 20 75 50 185 66 245 20 71 26 107 18 107 -7 0 -147 -79 -312
-175z"/>
<path d="M1290 2735 l-145 -145 140 -140 c77 -77 144 -140 150 -140 13 0 285
272 285 285 0 10 -271 285 -280 285 -3 0 -70 -65 -150 -145z"/>
<path d="M2440 2735 l-145 -145 140 -140 c77 -77 144 -140 150 -140 6 0 75 64
153 142 l142 142 -142 143 c-79 79 -145 143 -148 143 -3 0 -70 -65 -150 -145z"/>
<path d="M273 2667 c-117 -67 -211 -126 -210 -131 2 -5 66 -26 143 -47 539
-145 544 -146 544 -133 0 16 -246 434 -255 433 -5 0 -105 -55 -222 -122z"/>
<path d="M878 2502 c-42 -103 -80 -195 -84 -204 -5 -14 -1 -18 17 -18 58 -1
409 55 409 65 0 5 -52 80 -116 165 -64 85 -118 161 -121 168 -13 32 -34 -2
-105 -176z m165 -24 c32 -44 55 -84 50 -88 -10 -9 -183 -33 -190 -26 -6 6 69
196 77 196 3 -1 31 -37 63 -82z"/>
<path d="M2926 2522 c-69 -93 -126 -174 -126 -181 0 -6 12 -11 28 -11 15 0
103 -11 196 -25 211 -31 210 -31 202 -2 -11 45 -155 382 -164 385 -5 1 -66
-73 -136 -166z m162 -57 c23 -54 40 -100 39 -102 -4 -3 -198 24 -202 29 -3 2
24 43 58 90 34 47 63 85 63 84 1 0 20 -46 42 -101z"/>
<path d="M3630 2459 c-179 -48 -333 -89 -343 -89 -10 0 -17 -5 -15 -11 4 -12
436 -264 443 -258 7 7 255 439 255 444 0 8 8 9 -340 -86z"/>
<path d="M1950 2469 c-202 -27 -361 -185 -390 -387 -28 -203 72 -392 257 -480
76 -36 81 -37 193 -37 135 0 198 20 283 89 215 175 238 474 51 675 -101 109
-245 160 -394 140z m144 -74 c120 -25 210 -95 269 -210 30 -56 32 -67 32 -165
0 -97 -2 -110 -31 -170 -96 -202 -326 -281 -530 -180 -76 37 -136 101 -177
188 -28 60 -32 77 -32 157 0 80 4 97 32 157 56 119 152 198 273 224 73 16 83
16 164 -1z"/>
<path d="M172 2197 c-94 -95 -172 -176 -172 -180 0 -4 161 -7 357 -7 l358 0
-180 180 c-99 99 -182 180 -185 180 -3 0 -83 -78 -178 -173z"/>
<path d="M990 2015 l0 -205 205 0 205 0 0 205 0 205 -205 0 -205 0 0 -205z"/>
<path d="M2620 2015 l0 -205 205 0 205 0 0 205 0 205 -205 0 -205 0 0 -205z"/>
<path d="M3320 2017 c0 -14 340 -357 355 -357 15 0 355 343 355 358 0 9 -79
12 -355 12 -279 0 -355 -3 -355 -13z"/>
<path d="M182 1713 c-67 -119 -121 -220 -120 -224 4 -10 688 174 688 186 -1
10 -410 248 -433 252 -7 1 -67 -95 -135 -214z"/>
<path d="M5896 1845 c-101 -36 -173 -145 -183 -277 -7 -86 9 -182 38 -239 68
-135 259 -181 377 -92 40 30 79 88 88 129 6 29 3 32 -46 52 -29 12 -56 22 -61
22 -4 0 -13 -16 -19 -35 -6 -19 -25 -46 -43 -61 -26 -22 -38 -25 -76 -21 -80
9 -121 78 -121 203 0 125 52 204 134 204 52 0 77 -17 101 -70 10 -22 21 -39
24 -38 3 2 30 14 59 27 28 13 52 28 52 33 0 46 -68 134 -125 159 -48 22 -143
24 -199 4z"/>
<path d="M7492 1847 c-54 -20 -99 -63 -129 -124 -25 -52 -28 -71 -32 -176 -5
-175 31 -268 126 -324 42 -24 58 -28 128 -28 70 0 86 4 128 28 91 54 132 153
130 317 -2 208 -96 322 -264 319 -30 0 -69 -6 -87 -12z m155 -132 c82 -57 76
-337 -7 -380 -62 -32 -120 -12 -151 53 -45 92 -24 286 34 327 12 8 40 15 62
15 22 0 50 -7 62 -15z"/>
<path d="M8575 1849 c-46 -13 -103 -66 -131 -121 -46 -90 -51 -285 -9 -384 44
-106 110 -149 230 -149 69 0 87 4 126 27 88 52 129 148 129 301 0 170 -44 267
-143 313 -55 25 -142 31 -202 13z m160 -143 c13 -13 28 -41 34 -62 14 -49 14
-188 1 -236 -13 -46 -61 -88 -101 -88 -82 0 -123 65 -124 194 0 107 10 148 44
185 24 26 37 31 75 31 36 0 52 -6 71 -24z"/>
<path d="M9101 1834 c-61 -31 -100 -79 -132 -163 -18 -48 -20 -72 -17 -166 4
-124 24 -184 81 -243 43 -45 75 -60 140 -68 69 -8 117 8 156 51 l29 34 7 -40
c7 -39 7 -39 51 -39 l44 0 -2 178 -3 177 -137 3 -138 3 0 -61 0 -60 71 0 c68
0 70 -1 63 -22 -13 -44 -34 -77 -56 -89 -25 -13 -92 -6 -115 13 -34 28 -53 90
-53 177 0 102 14 151 52 188 55 53 153 30 184 -43 8 -19 19 -34 25 -34 24 0
99 53 99 70 0 19 -43 87 -69 108 -72 58 -192 69 -280 26z"/>
<path d="M4650 1785 l0 -65 85 0 85 0 0 -260 0 -260 70 0 70 0 0 260 0 260 85
0 85 0 0 65 0 65 -240 0 -240 0 0 -65z"/>
<path d="M5212 1528 l3 -323 213 -3 212 -2 0 65 0 65 -145 0 -145 0 0 75 0 75
130 0 130 0 0 60 0 60 -130 0 -130 0 0 60 0 60 145 0 145 0 0 65 0 65 -215 0
-215 0 2 -322z"/>
<path d="M6270 1525 l0 -325 70 0 70 0 0 135 0 135 100 0 100 0 0 -135 0 -136
68 3 67 3 0 320 0 320 -67 3 -68 3 0 -126 0 -125 -100 0 -100 0 0 125 0 125
-70 0 -70 0 0 -325z"/>
<path d="M6820 1525 l0 -325 65 0 65 0 1 188 0 187 95 -188 95 -188 67 3 67 3
0 320 0 320 -62 3 -63 3 0 -198 -1 -198 -96 198 -96 197 -69 0 -68 0 0 -325z"/>
<path d="M7920 1525 l0 -325 215 0 215 0 0 65 0 65 -150 0 -150 0 0 260 0 260
-65 0 -65 0 0 -325z"/>
<path d="M9480 1840 c0 -6 43 -93 95 -194 l95 -183 0 -131 0 -132 70 0 70 0 0
126 0 126 95 187 c52 102 95 192 95 199 0 8 -21 12 -70 12 l-70 0 -59 -117
-59 -118 -58 118 -59 117 -72 0 c-44 0 -73 -4 -73 -10z"/>
<path d="M3145 1744 c-44 -6 -140 -19 -212 -29 -73 -10 -133 -22 -133 -26 0
-13 251 -344 261 -344 12 0 172 381 167 399 -2 9 -22 9 -83 0z m-18 -86 c-3
-7 -21 -50 -40 -96 -19 -46 -36 -85 -39 -87 -5 -5 -123 152 -123 163 0 4 36
12 80 18 112 16 128 16 122 2z"/>
<path d="M794 1733 c51 -135 163 -393 171 -392 12 0 258 330 257 344 -1 6 -57
17 -124 26 -68 10 -152 22 -188 28 -97 16 -124 15 -116 -6z m211 -78 c28 -3
62 -8 77 -11 l27 -5 -62 -84 c-34 -46 -64 -84 -67 -84 -5 -1 -80 179 -80 192
0 5 12 6 28 3 15 -2 50 -7 77 -11z"/>
<path d="M1285 1580 l-140 -140 148 -147 147 -148 140 140 c77 77 140 144 140
150 0 13 -272 285 -285 285 -6 0 -73 -63 -150 -140z"/>
<path d="M2435 1580 l-140 -140 148 -148 147 -147 145 145 145 145 -142 143
c-78 78 -147 142 -153 142 -6 0 -73 -63 -150 -140z"/>
<path d="M3273 1673 c129 -231 252 -433 261 -431 6 2 105 57 219 123 185 107
236 145 193 145 -8 0 -156 38 -330 85 -308 83 -352 93 -343 78z"/>
<path d="M385 1478 c-7 -21 -125 -466 -125 -472 0 -14 32 3 310 164 162 94
297 170 302 170 4 0 8 6 8 13 0 8 -83 35 -233 75 -128 34 -238 62 -245 62 -7
0 -15 -6 -17 -12z"/>
<path d="M1810 1200 l0 -210 205 0 205 0 0 210 0 210 -205 0 -205 0 0 -210z"/>
<path d="M3140 1365 c0 -8 130 -489 134 -492 2 -2 102 23 222 56 120 32 228
61 239 63 11 2 20 9 20 16 0 9 -595 362 -611 362 -2 0 -4 -2 -4 -5z"/>
<path d="M1513 1103 c-95 -70 -172 -132 -172 -138 -1 -11 399 -178 408 -170 5
6 -47 389 -58 418 -6 15 -33 -2 -178 -110z m150 -145 c4 -32 4 -58 -1 -58 -15
0 -184 75 -186 82 0 4 35 34 79 67 l80 60 11 -47 c6 -26 14 -73 17 -104z"/>
<path d="M2326 1173 c-3 -32 -17 -130 -30 -218 -14 -88 -23 -162 -21 -163 6
-6 409 164 412 174 2 8 -322 254 -346 262 -4 1 -11 -23 -15 -55z m226 -195
c-11 -11 -185 -78 -190 -73 -4 4 15 152 24 187 4 14 20 6 89 -45 46 -34 80
-65 77 -69z"/>
<path d="M580 835 c0 -140 3 -255 8 -255 9 0 502 493 502 503 0 4 -115 7 -255
7 l-255 0 0 -255z"/>
<path d="M2930 835 l0 -255 255 0 c140 0 255 3 255 8 0 11 -488 502 -500 502
-6 0 -10 -90 -10 -255z"/>
<path d="M1095 818 c-121 -33 -222 -62 -224 -64 -4 -4 120 -469 130 -486 4 -7
10 -10 12 -8 9 12 337 589 343 603 9 26 -17 21 -261 -45z"/>
<path d="M2649 838 c-6 -24 -35 -133 -65 -242 -29 -110 -52 -201 -50 -203 7
-8 489 -134 493 -129 3 2 -64 123 -147 268 -84 144 -163 282 -176 306 -14 23
-29 42 -34 42 -5 0 -14 -19 -21 -42z"/>
<path d="M1448 627 c-115 -67 -208 -126 -208 -131 0 -8 235 -423 246 -435 2
-2 6 -2 9 1 6 6 185 664 185 679 0 19 -32 3 -232 -114z"/>
<path d="M2222 537 c-67 -117 -122 -217 -122 -222 0 -6 28 -25 63 -44 34 -19
131 -74 215 -123 85 -49 156 -87 160 -84 8 8 -173 679 -184 683 -5 2 -64 -93
-132 -210z"/>
<path d="M1833 534 c-95 -97 -173 -180 -173 -185 0 -14 334 -349 348 -349 9 0
12 83 12 355 0 195 -3 355 -7 355 -5 0 -86 -79 -180 -176z"/>
</g>
</svg>
