<svg id="Layer_1" data-name="Layer 1" xmlns="http://www.w3.org/2000/svg" viewBox="0 0 172.68 172.69"><defs><style>.cls-1{fill:#fff;}</style></defs><title>Looking For The Cloud_Logos</title><path class="cls-1" d="M9.79,0a9.71,9.71,0,0,1,1.93.19l153.2,34a9.81,9.81,0,0,1,.18,19.14L109.54,67.05l56.28,18.44a9.75,9.75,0,0,1,6.86,9.35,9.86,9.86,0,0,1-6.36,9.18l-28.44,11.85L164,119.11a9.79,9.79,0,0,1,8.71,9.75v17a9.82,9.82,0,0,1-8.5,9.71l-118.78,17a9.81,9.81,0,0,1-5.18-18.81l87.61-36.51L25.66,104.57a9.8,9.8,0,0,1-1-19.29L100.11,66.7,7,36.19a9.73,9.73,0,0,1-7-9.38V9.8A9.8,9.8,0,0,1,9.79,0Zm95.08,65.53L164.5,50.84a7.21,7.21,0,0,0-.13-14.07L11.18,2.74A7.18,7.18,0,0,0,2.6,9.8v17a7.15,7.15,0,0,0,5.13,6.9Zm27.8,49.69,32.69-13.62a7.26,7.26,0,0,0,4.72-6.76A7.18,7.18,0,0,0,165,88L104.77,68.23,25.27,87.81A7.2,7.2,0,0,0,26,102ZM43.82,170.08A7.81,7.81,0,0,0,45,170l118.83-17a7.23,7.23,0,0,0,6.25-7.14v-17a7.2,7.2,0,0,0-6.42-7.17L133,117.89,41.2,156.16a7.21,7.21,0,0,0,2.62,13.92Z"/></svg>