<svg id="Layer_1" data-name="Layer 1" xmlns="http://www.w3.org/2000/svg" viewBox="0 0 194.58 341.46"><defs><style>.cls-1{fill:#fff;}</style></defs><title>Looking For The Cloud_Logos</title><path class="cls-1" d="M1.74,239V205.72H4.31v30.75H19.15V239Z"/><path class="cls-1" d="M30.44,230.88V213.94c0-5.09,3.54-8.54,9.19-8.54s9.15,3.45,9.15,8.58v16.85c0,5.13-3.6,8.58-9.15,8.58S30.44,236,30.44,230.88Zm9.19-23C36,207.92,33,209.64,33,214v16.75c0,4.39,3,6.11,6.63,6.11s6.58-1.72,6.58-6.11V214C46.21,209.64,43.27,207.92,39.63,207.92Z"/><path class="cls-1" d="M59.61,230.88V213.94c0-5.09,3.55-8.54,9.19-8.54S78,208.85,78,214v16.85c0,5.13-3.59,8.58-9.15,8.58S59.61,236,59.61,230.88Zm9.19-23c-3.64,0-6.62,1.72-6.62,6.11v16.75c0,4.39,3,6.11,6.62,6.11s6.58-1.72,6.58-6.11V214C75.38,209.64,72.44,207.92,68.8,207.92Z"/><path class="cls-1" d="M104.77,239,94.64,222.43l-3.5,4.81V239H88.57V205.72h2.57V223L104,205.72h3L96.27,220.28,107.85,239Z"/><path class="cls-1" d="M118.15,205.72H136v2.52h-7.66v28.23H136V239H118.15v-2.52h7.66V208.24h-7.66Z"/><path class="cls-1" d="M162,239l-12.41-29.16V239H147V205.72h3.45L163,235.21V205.72h2.57V239Z"/><path class="cls-1" d="M192,214c0-4.34-2.94-6.06-6.58-6.06s-6.63,1.72-6.63,6.11v16.75c0,4.39,3,6.11,6.63,6.11s6.53-1.68,6.58-6v-7.19h-7.1v-2.52h9.66v9.66c0,5.13-3.59,8.58-9.14,8.58s-9.2-3.45-9.2-8.53V213.94c0-5.09,3.55-8.54,9.2-8.54s9.14,3.45,9.14,8.58Z"/><path class="cls-1" d="M4.31,259.27v12.36H18.08v2.52H4.31V290H1.74V256.75H19.2v2.52Z"/><path class="cls-1" d="M30.44,281.9V265c0-5.09,3.54-8.54,9.19-8.54s9.15,3.45,9.15,8.59v16.84c0,5.13-3.6,8.59-9.15,8.59S30.44,287,30.44,281.9Zm9.19-23c-3.64,0-6.63,1.73-6.63,6.11V281.8c0,4.39,3,6.12,6.63,6.12s6.58-1.73,6.58-6.12V265.05C46.21,260.67,43.27,258.94,39.63,258.94Z"/><path class="cls-1" d="M75.27,290,68.5,275.51H61.92V290H59.35V256.75H69c7.28,0,8.72,5.74,8.72,8.49v1.63c0,2.52-1.12,7.33-6.48,8.45l7,14.7Zm-.14-24.64c0-5.32-4.06-6.11-6.26-6.11h-7V273h7c2.19,0,6.16-.84,6.16-6.16Z"/><path class="cls-1" d="M128.38,259.31V290h-2.57V259.31h-8.4v-2.56h19.37v2.56Z"/><path class="cls-1" d="M163.18,290V274.25H149.32V290h-2.56V256.75h2.56v15h13.86v-15h2.57V290Z"/><path class="cls-1" d="M176.71,290V256.75h17.45v2.52H179.28v12.32h13.77v2.52H179.28V287.5h14.88V290Z"/><path class="cls-1" d="M17.07,316c0-4.34-2.94-6.07-6.58-6.07s-6.62,1.73-6.62,6.12v16.75c0,4.38,3,6.11,6.62,6.11s6.58-1.73,6.58-6.11h2.57v.05c0,5.13-3.6,8.58-9.15,8.58S1.3,338,1.3,332.92V316c0-5.08,3.55-8.53,9.19-8.53s9.15,3.45,9.15,8.58Z"/><path class="cls-1" d="M30.9,341V307.77h2.57v30.75H48.31V341Z"/><path class="cls-1" d="M59.61,332.92V316c0-5.08,3.55-8.53,9.19-8.53S78,310.9,78,316v16.85c0,5.13-3.59,8.58-9.15,8.58S59.61,338,59.61,332.92Zm9.19-23c-3.64,0-6.62,1.73-6.62,6.12v16.75c0,4.38,3,6.11,6.62,6.11s6.58-1.73,6.58-6.11V316.08C75.38,311.69,72.44,310,68.8,310Z"/><path class="cls-1" d="M107.38,307.77v25.11c0,5.13-3.59,8.58-9.15,8.58S89,338,89,332.92V307.77h2.57v25.06c0,4.38,3,6.11,6.62,6.11s6.58-1.73,6.58-6.11V307.77Z"/><path class="cls-1" d="M136.26,316.36v16c0,5.27-3.22,8.72-8.82,8.72h-9.52V307.77h9.52C133,307.77,136.26,311.22,136.26,316.36Zm-8.82-6.07h-7v28.23h7c3.55,0,6.26-1.72,6.26-6.25V316.4C133.7,312.16,131.08,310.29,127.44,310.29Z"/><path class="cls-1" d="M9.79,0a9.71,9.71,0,0,1,1.93.19l153.2,34a9.81,9.81,0,0,1,.18,19.14L109.54,67.05l56.28,18.44a9.75,9.75,0,0,1,6.86,9.35,9.86,9.86,0,0,1-6.36,9.18l-28.44,11.85L164,119.11a9.79,9.79,0,0,1,8.71,9.74v17a9.82,9.82,0,0,1-8.5,9.71l-118.78,17a9.81,9.81,0,0,1-5.18-18.81l87.6-36.51L25.66,104.57a9.8,9.8,0,0,1-1-19.29L100.1,66.7,7,36.19a9.73,9.73,0,0,1-7-9.38V9.8A9.8,9.8,0,0,1,9.79,0Zm95.08,65.52L164.5,50.84a7.21,7.21,0,0,0-.13-14.07L11.18,2.74A7.18,7.18,0,0,0,2.6,9.8v17a7.15,7.15,0,0,0,5.13,6.9Zm27.8,49.7,32.69-13.62a7.26,7.26,0,0,0,4.72-6.76A7.18,7.18,0,0,0,165,88L104.77,68.23,25.27,87.81A7.2,7.2,0,0,0,26,102ZM43.82,170.08A7.81,7.81,0,0,0,45,170l118.83-17a7.23,7.23,0,0,0,6.25-7.14v-17a7.2,7.2,0,0,0-6.42-7.16L133,117.89,41.19,156.16a7.21,7.21,0,0,0,2.63,13.92Z"/></svg>