<svg id="Layer_1" data-name="Layer 1" xmlns="http://www.w3.org/2000/svg" viewBox="0 0 193.28 136.06"><defs><style>.cls-1{fill:#fff;}</style></defs><title>Looking For The Cloud_Logos</title><path class="cls-1" d="M.44,33.6V.33H3V31.08H17.85V33.6Z"/><path class="cls-1" d="M29.14,25.48V8.54C29.14,3.45,32.68,0,38.33,0s9.15,3.45,9.15,8.59V25.43c0,5.13-3.6,8.59-9.15,8.59S29.14,30.56,29.14,25.48Zm9.19-23c-3.64,0-6.63,1.73-6.63,6.11V25.38c0,4.39,3,6.12,6.63,6.12s6.58-1.73,6.58-6.12V8.63C44.91,4.25,42,2.52,38.33,2.52Z"/><path class="cls-1" d="M58.31,25.48V8.54C58.31,3.45,61.86,0,67.5,0s9.15,3.45,9.15,8.59V25.43c0,5.13-3.59,8.59-9.15,8.59S58.31,30.56,58.31,25.48Zm9.19-23c-3.64,0-6.62,1.73-6.62,6.11V25.38c0,4.39,3,6.12,6.62,6.12s6.58-1.73,6.58-6.12V8.63C74.08,4.25,71.14,2.52,67.5,2.52Z"/><path class="cls-1" d="M103.47,33.6,93.34,17l-3.5,4.81V33.6H87.27V.33h2.57V17.59L102.72.33h3L95,14.88,106.55,33.6Z"/><path class="cls-1" d="M116.85.33h17.88V2.85h-7.66V31.08h7.66V33.6H116.85V31.08h7.66V2.85h-7.66Z"/><path class="cls-1" d="M160.67,33.6,148.26,4.43V33.6h-2.57V.33h3.45l12.55,29.49V.33h2.57V33.6Z"/><path class="cls-1" d="M190.72,8.59c0-4.34-2.94-6.07-6.58-6.07s-6.63,1.73-6.63,6.11V25.38c0,4.39,3,6.12,6.63,6.12s6.53-1.68,6.58-6V18.29h-7.1V15.77h9.66v9.66c0,5.13-3.59,8.59-9.14,8.59s-9.2-3.46-9.2-8.54V8.54c0-5.09,3.55-8.54,9.2-8.54s9.14,3.45,9.14,8.59Z"/><path class="cls-1" d="M3,53.87V66.23H16.78v2.52H3V84.62H.44V51.35H17.9v2.52Z"/><path class="cls-1" d="M29.14,76.5V59.56c0-5.08,3.54-8.54,9.19-8.54s9.15,3.46,9.15,8.59V76.45c0,5.14-3.6,8.59-9.15,8.59S29.14,81.59,29.14,76.5Zm9.19-23c-3.64,0-6.63,1.73-6.63,6.12V76.41c0,4.38,3,6.11,6.63,6.11s6.58-1.73,6.58-6.11V59.66C44.91,55.27,42,53.54,38.33,53.54Z"/><path class="cls-1" d="M74,84.62,67.2,70.11H60.62V84.62H58.05V51.35h9.62c7.28,0,8.72,5.74,8.72,8.49v1.63c0,2.53-1.12,7.33-6.48,8.45l7,14.7ZM73.83,60c0-5.32-4.06-6.11-6.26-6.11H60.62V67.59h7.05c2.19,0,6.16-.84,6.16-6.16Z"/><path class="cls-1" d="M127.08,53.92v30.7h-2.57V53.92h-8.4V51.35h19.37v2.57Z"/><path class="cls-1" d="M161.88,84.62V68.85H148V84.62h-2.56V51.35H148v15h13.86v-15h2.57V84.62Z"/><path class="cls-1" d="M175.41,84.62V51.35h17.45v2.52H178V66.19h13.77v2.52H178V82.1h14.88v2.52Z"/><path class="cls-1" d="M15.77,110.63c0-4.34-2.94-6.06-6.58-6.06s-6.62,1.72-6.62,6.11v16.75c0,4.39,3,6.11,6.62,6.11s6.58-1.72,6.58-6.11h2.57v0c0,5.13-3.6,8.58-9.15,8.58S0,132.61,0,127.52V110.59c0-5.09,3.55-8.54,9.19-8.54s9.15,3.45,9.15,8.58Z"/><path class="cls-1" d="M29.6,135.64V102.37h2.57v30.75H47v2.52Z"/><path class="cls-1" d="M58.31,127.52V110.59c0-5.09,3.55-8.54,9.19-8.54s9.15,3.45,9.15,8.58v16.85c0,5.13-3.59,8.58-9.15,8.58S58.31,132.61,58.31,127.52Zm9.19-23c-3.64,0-6.62,1.72-6.62,6.11v16.75c0,4.39,3,6.11,6.62,6.11s6.58-1.72,6.58-6.11V110.68C74.08,106.29,71.14,104.57,67.5,104.57Z"/><path class="cls-1" d="M106.08,102.37v25.11c0,5.13-3.59,8.58-9.15,8.58s-9.19-3.45-9.19-8.54V102.37h2.57v25.06c0,4.39,3,6.11,6.62,6.11s6.58-1.72,6.58-6.11V102.37Z"/><path class="cls-1" d="M135,111v16c0,5.27-3.22,8.72-8.82,8.72h-9.52V102.37h9.52C131.7,102.37,135,105.83,135,111Zm-8.82-6.07h-7v28.23h7c3.55,0,6.26-1.72,6.26-6.25V111C132.4,106.76,129.78,104.89,126.14,104.89Z"/></svg>