<svg id="Layer_1" data-name="Layer 1" xmlns="http://www.w3.org/2000/svg" viewBox="0 0 398.68 172.69"><defs><style>.cls-1{fill:#fff;}</style></defs><title>Looking For The Cloud_Logos</title><path class="cls-1" d="M205.84,51.91V18.64h2.56V49.39h14.84v2.52Z"/><path class="cls-1" d="M234.53,43.79V26.85c0-5.09,3.55-8.54,9.2-8.54s9.14,3.45,9.14,8.59V43.74c0,5.14-3.59,8.59-9.14,8.59S234.53,48.88,234.53,43.79Zm9.2-23c-3.65,0-6.63,1.73-6.63,6.11V43.7c0,4.38,3,6.11,6.63,6.11s6.57-1.73,6.57-6.11V26.94C250.3,22.56,247.36,20.83,243.73,20.83Z"/><path class="cls-1" d="M263.7,43.79V26.85c0-5.09,3.55-8.54,9.2-8.54S282,21.76,282,26.9V43.74c0,5.14-3.59,8.59-9.14,8.59S263.7,48.88,263.7,43.79Zm9.2-23c-3.64,0-6.63,1.73-6.63,6.11V43.7c0,4.38,3,6.11,6.63,6.11s6.58-1.73,6.58-6.11V26.94C279.48,22.56,276.54,20.83,272.9,20.83Z"/><path class="cls-1" d="M308.86,51.91,298.73,35.34l-3.5,4.81V51.91h-2.56V18.64h2.56V35.9l12.88-17.26h3L300.37,33.2l11.57,18.71Z"/><path class="cls-1" d="M322.25,18.64h17.87v2.52h-7.65V49.39h7.65v2.52H322.25V49.39h7.65V21.16h-7.65Z"/><path class="cls-1" d="M366.06,51.91,353.65,22.74V51.91h-2.57V18.64h3.46l12.55,29.49V18.64h2.56V51.91Z"/><path class="cls-1" d="M396.11,26.9c0-4.34-2.94-6.07-6.58-6.07s-6.63,1.73-6.63,6.11V43.7c0,4.38,3,6.11,6.63,6.11s6.53-1.68,6.58-6V36.6H389V34.08h9.66v9.66c0,5.14-3.6,8.59-9.15,8.59s-9.19-3.45-9.19-8.54V26.85c0-5.09,3.54-8.54,9.19-8.54s9.15,3.45,9.15,8.59Z"/><path class="cls-1" d="M208.4,72.18V84.55h13.77v2.52H208.4v15.86h-2.56V69.66h17.45v2.52Z"/><path class="cls-1" d="M234.53,94.81V77.87c0-5.08,3.55-8.53,9.2-8.53s9.14,3.45,9.14,8.58V94.77c0,5.13-3.59,8.58-9.14,8.58S234.53,99.9,234.53,94.81Zm9.2-23c-3.65,0-6.63,1.72-6.63,6.11V94.72c0,4.39,3,6.11,6.63,6.11s6.57-1.72,6.57-6.11V78C250.3,73.58,247.36,71.86,243.73,71.86Z"/><path class="cls-1" d="M279.36,102.93l-6.77-14.51H266v14.51h-2.56V69.66h9.61c7.28,0,8.73,5.74,8.73,8.49v1.64c0,2.52-1.12,7.32-6.49,8.44l7,14.7Zm-.14-24.63c0-5.32-4.06-6.12-6.25-6.12h-7V85.9h7.05c2.19,0,6.16-.84,6.16-6.16Z"/><path class="cls-1" d="M332.47,72.23v30.7H329.9V72.23h-8.4V69.66h19.37v2.57Z"/><path class="cls-1" d="M367.28,102.93V87.16H353.42v15.77h-2.57V69.66h2.57v15h13.86v-15h2.56v33.27Z"/><path class="cls-1" d="M380.81,102.93V69.66h17.45v2.52H383.37V84.5h13.77V87H383.37v13.39h14.89v2.52Z"/><path class="cls-1" d="M221.17,128.94c0-4.33-2.94-6.06-6.58-6.06S208,124.61,208,129v16.75c0,4.39,3,6.12,6.63,6.12s6.58-1.73,6.58-6.12h2.56v0c0,5.13-3.59,8.59-9.14,8.59s-9.2-3.46-9.2-8.54V128.9c0-5.09,3.55-8.54,9.2-8.54s9.14,3.45,9.14,8.58Z"/><path class="cls-1" d="M235,154V120.69h2.57v30.75H252.4V154Z"/><path class="cls-1" d="M263.7,145.84V128.9c0-5.09,3.55-8.54,9.2-8.54s9.14,3.45,9.14,8.58v16.85c0,5.13-3.59,8.59-9.14,8.59S263.7,150.92,263.7,145.84Zm9.2-23c-3.64,0-6.63,1.73-6.63,6.11v16.75c0,4.39,3,6.12,6.63,6.12s6.58-1.73,6.58-6.12V129C279.48,124.61,276.54,122.88,272.9,122.88Z"/><path class="cls-1" d="M311.47,120.69v25.1c0,5.13-3.59,8.59-9.14,8.59s-9.2-3.46-9.2-8.54V120.69h2.57v25.05c0,4.39,3,6.12,6.63,6.12s6.58-1.73,6.58-6.12V120.69Z"/><path class="cls-1" d="M340.36,129.27v16c0,5.27-3.22,8.73-8.82,8.73H322V120.69h9.52C337.09,120.69,340.36,124.14,340.36,129.27Zm-8.82-6.06h-7v28.23h7c3.54,0,6.25-1.73,6.25-6.26V129.32C337.79,125.07,335.18,123.21,331.54,123.21Z"/><path class="cls-1" d="M9.79,0a9.71,9.71,0,0,1,1.93.19l153.2,34a9.81,9.81,0,0,1,.18,19.14L109.54,67.05l56.28,18.44a9.75,9.75,0,0,1,6.86,9.35,9.86,9.86,0,0,1-6.36,9.18l-28.44,11.85L164,119.11a9.79,9.79,0,0,1,8.71,9.75v17a9.82,9.82,0,0,1-8.5,9.71l-118.78,17a9.81,9.81,0,0,1-5.18-18.81l87.61-36.51L25.66,104.57a9.8,9.8,0,0,1-1-19.29L100.11,66.7,7,36.19a9.73,9.73,0,0,1-7-9.38V9.8A9.8,9.8,0,0,1,9.79,0Zm95.08,65.53L164.5,50.84a7.21,7.21,0,0,0-.13-14.07L11.18,2.74A7.18,7.18,0,0,0,2.6,9.8v17a7.15,7.15,0,0,0,5.13,6.9Zm27.8,49.69,32.69-13.62a7.26,7.26,0,0,0,4.72-6.76A7.18,7.18,0,0,0,165,88L104.77,68.23,25.27,87.81A7.2,7.2,0,0,0,26,102ZM43.82,170.08A7.81,7.81,0,0,0,45,170l118.83-17a7.23,7.23,0,0,0,6.25-7.14v-17a7.2,7.2,0,0,0-6.42-7.17L133,117.89,41.2,156.16a7.21,7.21,0,0,0,2.62,13.92Z"/></svg>